<?xml version="1.0" encoding="utf-8"?>
<!-- Generator: Adobe Illustrator 27.5.0, SVG Export Plug-In . SVG Version: 6.00 Build 0)  -->
<svg version="1.1" xmlns="http://www.w3.org/2000/svg" xmlns:xlink="http://www.w3.org/1999/xlink" x="0px" y="0px"
	 viewBox="0 0 500 500" style="enable-background:new 0 0 500 500;" xml:space="preserve">
<g id="Background_Complete">
	<g>
		<g>
			<g>
				<polygon style="fill:#E0E0E0;" points="192.287,438.884 192.425,438.884 192.287,438.489 				"/>
			</g>
		</g>
		<g>
			<g>
				<polygon style="fill:#E0E0E0;" points="475.656,446.339 472.224,438.261 192.425,438.884 195.007,446.339 				"/>
			</g>
		</g>
	</g>
	<g>
		<g>
			<path style="fill:#E0E0E0;" d="M171.486,463.529l10.2-46.723c0.671-3.073-1.67-5.98-4.815-5.98H66.678
				c-2.092,0-3.955,1.32-4.649,3.293L46.62,457.932c-1.11,3.156,1.18,6.478,4.525,6.562l115.402,2.911
				C168.91,467.464,170.982,465.838,171.486,463.529z"/>
		</g>
	</g>
	<g>
		<g>
			<g>
				<path style="fill:#E0E0E0;" d="M168.049,438.985c3.896-1.741,7.867,1.452,9.58,4.745c2.102,4.042,2.216,8.767,3.195,13.134
					c0.921,4.108,2.793,7.771,5.812,10.733c2.859,2.805,6.394,4.826,10.143,6.185c4.457,1.616,9.199,2.279,13.902,2.688
					c4.546,0.396,9.121,0.644,13.685,0.56c8.579-0.157,18.085-1.534,25.26-6.619c3.108-2.202,5.751-6.18,3.797-10.025
					c-1.638-3.223-5.749-4.061-9.048-3.904c-4.063,0.193-8.339,1.405-10.819,4.854c-2.441,3.396-1.623,7.551,0.902,10.625
					c2.546,3.1,6.375,5.041,10.116,6.297c3.95,1.325,8.208,1.839,12.362,1.528c6.546-0.491,12.938-2.952,17.831-7.375
					c9.474-8.566,11.721-22.34,11.325-34.499c-0.076-2.329-0.253-4.652-0.496-6.968c-0.167-1.584-2.668-1.601-2.5,0
					c1.279,12.157,0.906,26.361-7.03,36.424c-7.852,9.956-22.547,12.716-33.857,7.252c-3.141-1.518-6.823-3.949-7.568-7.629
					c-0.861-4.253,3.338-6.925,6.923-7.663c2.811-0.579,7.452-0.921,9.383,1.777c1.153,1.611,0.565,3.778-0.547,5.235
					c-1.244,1.63-3.115,2.692-4.903,3.623c-7.332,3.816-15.784,4.669-23.931,4.578c-4.161-0.047-8.335-0.295-12.475-0.718
					c-4.366-0.446-8.773-1.228-12.848-2.911c-3.349-1.383-6.466-3.446-8.873-6.168c-2.706-3.06-3.866-6.776-4.565-10.732
					c-1.221-6.904-2.633-16.492-11.136-17.846c-1.709-0.272-3.306-0.041-4.881,0.663
					C165.321,437.482,166.591,439.637,168.049,438.985L168.049,438.985z"/>
			</g>
		</g>
	</g>
	<g>
		<g>
			<polygon style="fill:#FAFAFA;" points="71.543,8.287 46.337,387.189 291.398,387.189 90.097,8.287 			"/>
		</g>
	</g>
	<g>
		<g>
			<polygon style="fill:#F5F5F5;" points="438.4,8.287 463.606,387.189 218.544,387.189 419.845,8.287 			"/>
		</g>
	</g>
	<g>
		<g>
			<g>
				<g>
					<g>
						<g>
							<g>
								<g>
									<path style="fill:#E0E0E0;" d="M410.508,142.499c-0.979,2.556-3.845,3.834-6.401,2.854
										c-2.556-0.979-3.834-3.845-2.855-6.401c0.979-2.556,3.845-3.834,6.401-2.855
										C410.209,137.076,411.487,139.943,410.508,142.499z"/>
								</g>
							</g>
						</g>
					</g>
				</g>
				<g>
					<g>
						<g>
							<g>
								<g>
									<g>
										<path style="fill:#E0E0E0;" d="M410.427,140.7c-0.458,0.137-2.143-4.849-2.907-11.207
											c-0.745-6.332-1.164-11.42-0.728-11.513c0.496-0.103,1.693,4.99,2.433,11.29
											C409.979,135.547,410.882,140.571,410.427,140.7z"/>
									</g>
								</g>
							</g>
						</g>
					</g>
				</g>
				<g>
					<g>
						<g>
							<g>
								<g>
									<g>
										<path style="fill:#E0E0E0;" d="M422.809,119.101c0.217,0.339-3.231,2.631-8.244,2.724c-2.47,0.056-4.73-0.582-6.136-1.459
											c-1.442-0.859-1.92-1.868-1.753-1.986c0.199-0.18,0.917,0.423,2.288,0.894c1.352,0.498,3.337,0.879,5.579,0.832
											C419.042,120.045,422.604,118.599,422.809,119.101z"/>
									</g>
								</g>
							</g>
						</g>
					</g>
				</g>
			</g>
			<g>
				<g>
					<g>
						<g>
							<g>
								<path style="fill:#E0E0E0;" d="M426.525,143.619c-0.979,2.556-3.846,3.834-6.402,2.855
									c-2.556-0.979-3.834-3.846-2.855-6.402c0.979-2.556,3.845-3.834,6.401-2.855
									C426.226,138.197,427.504,141.063,426.525,143.619z"/>
							</g>
						</g>
					</g>
				</g>
			</g>
			<g>
				<g>
					<g>
						<g>
							<g>
								<g>
									<path style="fill:#E0E0E0;" d="M426.443,141.821c-0.458,0.137-2.143-4.849-2.907-11.207
										c-0.745-6.332-1.164-11.42-0.728-11.513c0.496-0.102,1.693,4.99,2.433,11.29
										C425.996,136.668,426.899,141.692,426.443,141.821z"/>
								</g>
							</g>
						</g>
					</g>
				</g>
			</g>
			<g>
				<g>
					<g>
						<g>
							<g>
								<g>
									<path style="fill:#E0E0E0;" d="M423.371,122.438c0.282,0.35-2.867,2.755-7.563,3.008c-4.696,0.295-8.102-1.728-7.863-2.108
										c0.191-0.467,3.546,0.673,7.762,0.391C419.927,123.519,423.128,121.996,423.371,122.438z"/>
								</g>
							</g>
						</g>
					</g>
				</g>
			</g>
		</g>
	</g>
	<g>
		<g>
			<g>
				<g>
					<g>
						<g>
							<g>
								<g>
									<path style="fill:#E0E0E0;" d="M86.609,135.323c-0.874,2.28-3.43,3.42-5.71,2.546c-2.28-0.873-3.42-3.43-2.546-5.71
										c0.874-2.28,3.43-3.42,5.71-2.546S87.483,133.043,86.609,135.323z"/>
								</g>
							</g>
						</g>
					</g>
				</g>
				<g>
					<g>
						<g>
							<g>
								<g>
									<g>
										<path style="fill:#E0E0E0;" d="M86.537,133.719c-0.409,0.122-1.912-4.325-2.593-9.996
											c-0.664-5.648-1.038-10.186-0.649-10.269c0.442-0.091,1.51,4.451,2.17,10.07
											C86.138,129.123,86.944,133.604,86.537,133.719z"/>
									</g>
								</g>
							</g>
						</g>
					</g>
				</g>
				<g>
					<g>
						<g>
							<g>
								<g>
									<g>
										<path style="fill:#E0E0E0;" d="M97.581,114.454c0.193,0.302-2.882,2.347-7.353,2.43c-2.203,0.05-4.219-0.519-5.474-1.301
											c-1.286-0.766-1.712-1.666-1.563-1.772c0.177-0.16,0.818,0.377,2.041,0.798c1.206,0.444,2.977,0.784,4.977,0.742
											C94.221,115.296,97.399,114.006,97.581,114.454z"/>
									</g>
								</g>
							</g>
						</g>
					</g>
				</g>
			</g>
			<g>
				<g>
					<g>
						<g>
							<g>
								<path style="fill:#E0E0E0;" d="M100.896,136.323c-0.874,2.28-3.43,3.42-5.71,2.546c-2.28-0.874-3.42-3.43-2.546-5.71
									c0.874-2.28,3.43-3.42,5.71-2.546C100.629,131.487,101.769,134.043,100.896,136.323z"/>
							</g>
						</g>
					</g>
				</g>
			</g>
			<g>
				<g>
					<g>
						<g>
							<g>
								<g>
									<path style="fill:#E0E0E0;" d="M100.824,134.719c-0.409,0.122-1.912-4.325-2.593-9.996
										c-0.664-5.648-1.038-10.186-0.649-10.269c0.442-0.091,1.51,4.451,2.17,10.07
										C100.424,130.123,101.23,134.604,100.824,134.719z"/>
								</g>
							</g>
						</g>
					</g>
				</g>
			</g>
			<g>
				<g>
					<g>
						<g>
							<g>
								<g>
									<path style="fill:#E0E0E0;" d="M98.083,117.43c0.252,0.312-2.557,2.458-6.746,2.683c-4.188,0.263-7.227-1.541-7.013-1.881
										c0.17-0.417,3.163,0.601,6.924,0.349C95.011,118.394,97.866,117.036,98.083,117.43z"/>
								</g>
							</g>
						</g>
					</g>
				</g>
			</g>
		</g>
	</g>
	<g>
		<g>
			<g>
				<g>
					<g>
						<g>
							<g>
								<g>
									<path style="fill:#E0E0E0;" d="M126.581,85.354c-0.555,1.449-2.18,2.174-3.629,1.618c-1.449-0.555-2.174-2.18-1.618-3.629
										c0.555-1.449,2.18-2.174,3.629-1.618C126.411,82.28,127.136,83.905,126.581,85.354z"/>
								</g>
							</g>
						</g>
					</g>
				</g>
				<g>
					<g>
						<g>
							<g>
								<g>
									<g>
										<path style="fill:#E0E0E0;" d="M126.535,84.334c-0.26,0.077-1.215-2.749-1.648-6.354c-0.422-3.59-0.66-6.474-0.413-6.527
											c0.281-0.058,0.96,2.829,1.379,6.401C126.281,81.413,126.793,84.261,126.535,84.334z"/>
									</g>
								</g>
							</g>
						</g>
					</g>
				</g>
				<g>
					<g>
						<g>
							<g>
								<g>
									<g>
										<path style="fill:#E0E0E0;" d="M133.555,72.089c0.123,0.192-1.832,1.492-4.674,1.545c-1.4,0.032-2.681-0.33-3.479-0.827
											c-0.817-0.487-1.088-1.059-0.994-1.126c0.113-0.102,0.52,0.24,1.297,0.507c0.767,0.282,1.892,0.498,3.163,0.471
											C131.419,72.624,133.439,71.804,133.555,72.089z"/>
									</g>
								</g>
							</g>
						</g>
					</g>
				</g>
			</g>
			<g>
				<g>
					<g>
						<g>
							<g>
								<path style="fill:#E0E0E0;" d="M135.661,85.99c-0.555,1.449-2.18,2.174-3.629,1.618c-1.449-0.555-2.174-2.18-1.618-3.629
									c0.555-1.449,2.18-2.174,3.629-1.618C135.492,82.915,136.217,84.54,135.661,85.99z"/>
							</g>
						</g>
					</g>
				</g>
			</g>
			<g>
				<g>
					<g>
						<g>
							<g>
								<g>
									<path style="fill:#E0E0E0;" d="M135.615,84.97c-0.26,0.077-1.215-2.749-1.648-6.354c-0.422-3.59-0.66-6.475-0.413-6.527
										c0.281-0.058,0.96,2.829,1.379,6.401C135.362,82.049,135.874,84.897,135.615,84.97z"/>
								</g>
							</g>
						</g>
					</g>
				</g>
			</g>
			<g>
				<g>
					<g>
						<g>
							<g>
								<g>
									<path style="fill:#E0E0E0;" d="M133.874,73.981c0.16,0.198-1.625,1.562-4.288,1.705c-2.662,0.167-4.594-0.98-4.458-1.195
										c0.108-0.265,2.01,0.382,4.401,0.222C131.921,74.593,133.735,73.73,133.874,73.981z"/>
								</g>
							</g>
						</g>
					</g>
				</g>
			</g>
		</g>
	</g>
	<g>
		<g>
			<g>
				<g>
					<g>
						<g>
							<g>
								<g>
									<path style="fill:#E0E0E0;" d="M460.36,81.872c-0.555,1.449-2.18,2.174-3.629,1.618c-1.449-0.555-2.174-2.18-1.618-3.629
										c0.555-1.449,2.18-2.174,3.629-1.618C460.191,78.798,460.915,80.422,460.36,81.872z"/>
								</g>
							</g>
						</g>
					</g>
				</g>
				<g>
					<g>
						<g>
							<g>
								<g>
									<g>
										<path style="fill:#E0E0E0;" d="M460.314,80.852c-0.26,0.077-1.215-2.749-1.648-6.354c-0.422-3.59-0.66-6.475-0.413-6.527
											c0.281-0.058,0.96,2.829,1.379,6.401C460.061,77.93,460.573,80.779,460.314,80.852z"/>
									</g>
								</g>
							</g>
						</g>
					</g>
				</g>
				<g>
					<g>
						<g>
							<g>
								<g>
									<g>
										<path style="fill:#E0E0E0;" d="M467.334,68.606c0.123,0.192-1.832,1.492-4.674,1.545c-1.4,0.032-2.681-0.33-3.479-0.827
											c-0.818-0.487-1.088-1.059-0.994-1.126c0.113-0.102,0.52,0.24,1.297,0.507c0.767,0.282,1.892,0.499,3.163,0.472
											C465.198,69.142,467.218,68.322,467.334,68.606z"/>
									</g>
								</g>
							</g>
						</g>
					</g>
				</g>
			</g>
			<g>
				<g>
					<g>
						<g>
							<g>
								<path style="fill:#E0E0E0;" d="M469.441,82.507c-0.555,1.449-2.18,2.174-3.629,1.618c-1.449-0.555-2.174-2.18-1.618-3.629
									c0.555-1.449,2.18-2.174,3.629-1.618C469.271,79.433,469.996,81.058,469.441,82.507z"/>
							</g>
						</g>
					</g>
				</g>
			</g>
			<g>
				<g>
					<g>
						<g>
							<g>
								<g>
									<path style="fill:#E0E0E0;" d="M469.395,81.487c-0.26,0.077-1.215-2.749-1.648-6.354c-0.422-3.59-0.66-6.475-0.413-6.527
										c0.281-0.058,0.96,2.829,1.379,6.401C469.141,78.566,469.653,81.414,469.395,81.487z"/>
								</g>
							</g>
						</g>
					</g>
				</g>
			</g>
			<g>
				<g>
					<g>
						<g>
							<g>
								<g>
									<path style="fill:#E0E0E0;" d="M467.653,70.498c0.16,0.198-1.625,1.562-4.288,1.705c-2.662,0.167-4.594-0.98-4.458-1.195
										c0.108-0.265,2.01,0.382,4.401,0.222C465.701,71.111,467.515,70.248,467.653,70.498z"/>
								</g>
							</g>
						</g>
					</g>
				</g>
			</g>
		</g>
	</g>
	<g>
		<g>
			<g>
				<g>
					<g>
						<g>
							<g>
								<g>
									<path style="fill:#E0E0E0;" d="M472.318,199.76c-0.555,1.449-2.18,2.174-3.629,1.618s-2.174-2.18-1.618-3.629
										c0.555-1.449,2.18-2.174,3.629-1.618C472.149,196.686,472.873,198.311,472.318,199.76z"/>
								</g>
							</g>
						</g>
					</g>
				</g>
				<g>
					<g>
						<g>
							<g>
								<g>
									<g>
										<path style="fill:#E0E0E0;" d="M472.272,198.741c-0.26,0.077-1.215-2.749-1.648-6.354c-0.422-3.59-0.66-6.474-0.413-6.527
											c0.281-0.058,0.96,2.829,1.379,6.4C472.018,195.819,472.53,198.667,472.272,198.741z"/>
									</g>
								</g>
							</g>
						</g>
					</g>
				</g>
				<g>
					<g>
						<g>
							<g>
								<g>
									<g>
										<path style="fill:#E0E0E0;" d="M479.292,186.495c0.123,0.192-1.832,1.492-4.674,1.544c-1.4,0.032-2.681-0.33-3.479-0.827
											c-0.818-0.487-1.088-1.059-0.994-1.126c0.113-0.102,0.52,0.24,1.297,0.507c0.767,0.282,1.892,0.498,3.163,0.471
											C477.156,187.031,479.176,186.211,479.292,186.495z"/>
									</g>
								</g>
							</g>
						</g>
					</g>
				</g>
			</g>
			<g>
				<g>
					<g>
						<g>
							<g>
								<path style="fill:#E0E0E0;" d="M481.399,200.396c-0.555,1.449-2.18,2.174-3.629,1.618c-1.449-0.555-2.174-2.18-1.618-3.629
									c0.555-1.449,2.18-2.174,3.629-1.618C481.229,197.322,481.954,198.947,481.399,200.396z"/>
							</g>
						</g>
					</g>
				</g>
			</g>
			<g>
				<g>
					<g>
						<g>
							<g>
								<g>
									<path style="fill:#E0E0E0;" d="M481.353,199.376c-0.26,0.077-1.215-2.749-1.648-6.354c-0.422-3.59-0.66-6.475-0.413-6.527
										c0.281-0.058,0.96,2.829,1.379,6.401C481.099,196.455,481.611,199.303,481.353,199.376z"/>
								</g>
							</g>
						</g>
					</g>
				</g>
			</g>
			<g>
				<g>
					<g>
						<g>
							<g>
								<g>
									<path style="fill:#E0E0E0;" d="M479.611,188.387c0.16,0.198-1.625,1.562-4.288,1.706c-2.662,0.167-4.594-0.98-4.458-1.195
										c0.108-0.265,2.01,0.382,4.401,0.222C477.658,189,479.473,188.137,479.611,188.387z"/>
								</g>
							</g>
						</g>
					</g>
				</g>
			</g>
		</g>
	</g>
	<g>
		<g>
			<g>
				<g>
					<g>
						<path style="fill:#E0E0E0;" d="M56.63,87.905c-0.918,2.768-3.906,4.268-6.674,3.35c-2.768-0.918-4.268-3.906-3.35-6.674
							c0.918-2.768,3.906-4.268,6.674-3.35C56.048,82.149,57.548,85.137,56.63,87.905z"/>
					</g>
				</g>
			</g>
		</g>
		<g>
			<g>
				<g>
					<g>
						<g>
							<path style="fill:#E0E0E0;" d="M56.456,85.995c-0.305,0.108-2.189-5.131-3.309-11.845
								c-1.099-6.697-1.944-12.085-1.664-12.159c0.343-0.087,1.714,5.281,2.809,11.956C55.402,80.607,56.76,85.895,56.456,85.995z"
								/>
						</g>
					</g>
				</g>
			</g>
		</g>
		<g>
			<g>
				<g>
					<g>
						<g>
							<path style="fill:#E0E0E0;" d="M62.558,59.526c0.242,0.182-1.691,2.445-5.107,3.312c-3.408,0.901-6.197-0.138-6.074-0.415
								c0.07-0.337,2.706,0.116,5.782-0.71C60.248,60.942,62.333,59.266,62.558,59.526z"/>
						</g>
					</g>
				</g>
			</g>
		</g>
		<g>
			<g>
				<g>
					<g>
						<g>
							<path style="fill:#E0E0E0;" d="M63.17,64.971c0.269,0.159-1.563,2.494-4.957,3.103c-3.389,0.648-5.934-0.876-5.74-1.121
								c0.124-0.318,2.55,0.565,5.528-0.022C60.991,66.412,62.94,64.718,63.17,64.971z"/>
						</g>
					</g>
				</g>
			</g>
		</g>
	</g>
	<g>
		<g>
			<g>
				<g>
					<g>
						<path style="fill:#E0E0E0;" d="M361.335,82.751c-0.79,2.381-3.361,3.672-5.742,2.882c-2.382-0.79-3.672-3.361-2.882-5.742
							c0.79-2.382,3.361-3.672,5.742-2.882C360.835,77.799,362.125,80.369,361.335,82.751z"/>
					</g>
				</g>
			</g>
		</g>
		<g>
			<g>
				<g>
					<g>
						<g>
							<path style="fill:#E0E0E0;" d="M361.185,81.107c-0.263,0.093-1.884-4.414-2.847-10.19
								c-0.946-5.762-1.673-10.397-1.432-10.461c0.295-0.075,1.475,4.543,2.417,10.286
								C360.279,76.472,361.447,81.021,361.185,81.107z"/>
						</g>
					</g>
				</g>
			</g>
		</g>
		<g>
			<g>
				<g>
					<g>
						<g>
							<path style="fill:#E0E0E0;" d="M366.435,58.334c0.209,0.157-1.455,2.104-4.394,2.85c-2.932,0.775-5.332-0.119-5.225-0.357
								c0.06-0.29,2.328,0.1,4.974-0.611C364.447,59.553,366.242,58.111,366.435,58.334z"/>
						</g>
					</g>
				</g>
			</g>
		</g>
		<g>
			<g>
				<g>
					<g>
						<g>
							<path style="fill:#E0E0E0;" d="M366.961,63.019c0.231,0.137-1.344,2.146-4.265,2.67c-2.915,0.558-5.105-0.754-4.939-0.965
								c0.106-0.274,2.194,0.486,4.756-0.019C365.087,64.259,366.764,62.802,366.961,63.019z"/>
						</g>
					</g>
				</g>
			</g>
		</g>
	</g>
	<g>
		<g>
			<g>
				<g>
					<g>
						<path style="fill:#E0E0E0;" d="M28.16,207.44c-0.918,2.768-3.906,4.268-6.674,3.35c-2.768-0.918-4.268-3.906-3.35-6.674
							c0.918-2.768,3.906-4.268,6.674-3.35C27.577,201.684,29.077,204.672,28.16,207.44z"/>
					</g>
				</g>
			</g>
		</g>
		<g>
			<g>
				<g>
					<g>
						<g>
							<path style="fill:#E0E0E0;" d="M27.986,205.53c-0.305,0.108-2.19-5.131-3.309-11.844c-1.099-6.697-1.944-12.085-1.665-12.159
								c0.343-0.087,1.714,5.281,2.809,11.956C26.932,200.142,28.289,205.43,27.986,205.53z"/>
						</g>
					</g>
				</g>
			</g>
		</g>
		<g>
			<g>
				<g>
					<g>
						<g>
							<path style="fill:#E0E0E0;" d="M34.087,179.061c0.242,0.182-1.691,2.445-5.107,3.312c-3.408,0.901-6.197-0.138-6.073-0.415
								c0.07-0.337,2.706,0.116,5.782-0.71C31.777,180.477,33.862,178.801,34.087,179.061z"/>
						</g>
					</g>
				</g>
			</g>
		</g>
		<g>
			<g>
				<g>
					<g>
						<g>
							<path style="fill:#E0E0E0;" d="M34.699,184.506c0.269,0.159-1.562,2.494-4.957,3.103c-3.389,0.648-5.934-0.876-5.74-1.121
								c0.124-0.318,2.55,0.565,5.528-0.022C32.52,185.947,34.469,184.253,34.699,184.506z"/>
						</g>
					</g>
				</g>
			</g>
		</g>
	</g>
	<g>
		<g>
			<g>
				<g>
					<g>
						<path style="fill:#E0E0E0;" d="M207.119,54.751c-0.643,1.937-2.734,2.987-4.671,2.344c-1.937-0.642-2.987-2.734-2.344-4.671
							c0.642-1.937,2.733-2.987,4.671-2.344C206.712,50.723,207.762,52.814,207.119,54.751z"/>
					</g>
				</g>
			</g>
		</g>
		<g>
			<g>
				<g>
					<g>
						<g>
							<path style="fill:#E0E0E0;" d="M206.997,53.414c-0.214,0.076-1.532-3.59-2.316-8.289c-0.769-4.687-1.361-8.457-1.165-8.509
								c0.24-0.061,1.2,3.695,1.966,8.367C206.26,49.643,207.21,53.344,206.997,53.414z"/>
						</g>
					</g>
				</g>
			</g>
		</g>
		<g>
			<g>
				<g>
					<g>
						<g>
							<path style="fill:#E0E0E0;" d="M211.267,34.89c0.17,0.127-1.184,1.711-3.574,2.318c-2.385,0.631-4.337-0.097-4.25-0.29
								c0.049-0.236,1.894,0.081,4.046-0.497C209.651,35.881,211.11,34.708,211.267,34.89z"/>
						</g>
					</g>
				</g>
			</g>
		</g>
		<g>
			<g>
				<g>
					<g>
						<g>
							<path style="fill:#E0E0E0;" d="M211.696,38.701c0.188,0.111-1.093,1.746-3.469,2.172c-2.371,0.454-4.153-0.613-4.017-0.785
								c0.087-0.222,1.785,0.396,3.869-0.015C210.171,39.709,211.535,38.524,211.696,38.701z"/>
						</g>
					</g>
				</g>
			</g>
		</g>
	</g>
</g>
<g id="Background_Simple" style="display:none;">
	<g style="display:inline;">
		<g>
			<path style="fill:#F5F5F5;" d="M77.241,109.527l1.631-3.767c13.752-31.754,43.476-53.846,77.673-56.367
				c4.396-0.324,8.816-0.331,13.223-0.004c31.732,2.357,61.759,21.975,76.984,50.298c8.954,16.657,13.562,36.62,27.887,48.848
				c18.643,15.915,46.135,12.712,70.134,8.644c23.999-4.068,51.519-7.202,70.094,8.795c11.633,10.018,17.062,25.795,18.352,41.178
				c3.415,40.727-19.784,80.756-53.141,103.656c-33.357,22.9-75.321,30.314-115.622,27.805
				c-56.457-3.515-112.883-26.737-150.747-69.386C75.845,226.578,59.093,163.679,77.241,109.527z"/>
		</g>
	</g>
	<g style="display:inline;">
		<g>
			<circle style="fill:#F5F5F5;" cx="346.16" cy="91.017" r="35.217"/>
		</g>
	</g>
</g>
<g id="Table">
	<g>
		<g>
			<g>
				<path style="fill:#263238;" d="M9.805,387.189c0-0.144,107.346-0.26,239.734-0.26c132.434,0,239.757,0.117,239.757,0.26
					s-107.324,0.26-239.757,0.26C117.152,387.449,9.805,387.333,9.805,387.189z"/>
			</g>
		</g>
	</g>
</g>
<g id="Music">
	<g>
		<g>
			<g>
				<g>
					<g>
						<g>
							<g>
								<g>
									<path style="fill:#263238;" d="M295.152,63.101c-0.979,2.556-3.846,3.834-6.401,2.855
										c-2.556-0.979-3.834-3.845-2.855-6.401c0.979-2.556,3.845-3.834,6.401-2.855C294.853,57.679,296.132,60.545,295.152,63.101
										z"/>
								</g>
							</g>
						</g>
					</g>
				</g>
				<g>
					<g>
						<g>
							<g>
								<g>
									<g>
										<path style="fill:#263238;" d="M295.071,61.302c-0.458,0.137-2.143-4.849-2.907-11.207
											c-0.745-6.333-1.164-11.42-0.728-11.513c0.496-0.103,1.693,4.99,2.433,11.29C294.624,56.15,295.527,61.173,295.071,61.302
											z"/>
									</g>
								</g>
							</g>
						</g>
					</g>
				</g>
				<g>
					<g>
						<g>
							<g>
								<g>
									<g>
										<path style="fill:#263238;" d="M307.453,39.704c0.217,0.339-3.231,2.631-8.244,2.724c-2.47,0.056-4.73-0.582-6.137-1.459
											c-1.442-0.859-1.92-1.868-1.753-1.986c0.199-0.18,0.917,0.423,2.288,0.894c1.352,0.498,3.337,0.879,5.579,0.831
											C303.686,40.648,307.249,39.201,307.453,39.704z"/>
									</g>
								</g>
							</g>
						</g>
					</g>
				</g>
			</g>
			<g>
				<g>
					<g>
						<g>
							<g>
								<path style="fill:#263238;" d="M311.169,64.222c-0.979,2.556-3.846,3.834-6.402,2.855c-2.556-0.979-3.834-3.846-2.855-6.402
									c0.98-2.556,3.846-3.834,6.402-2.855C310.87,58.8,312.148,61.666,311.169,64.222z"/>
							</g>
						</g>
					</g>
				</g>
			</g>
			<g>
				<g>
					<g>
						<g>
							<g>
								<g>
									<path style="fill:#263238;" d="M311.088,62.423c-0.458,0.137-2.143-4.849-2.907-11.207
										c-0.745-6.333-1.164-11.42-0.728-11.513c0.496-0.102,1.693,4.99,2.433,11.29C310.641,57.271,311.544,62.294,311.088,62.423
										z"/>
								</g>
							</g>
						</g>
					</g>
				</g>
			</g>
			<g>
				<g>
					<g>
						<g>
							<g>
								<g>
									<path style="fill:#263238;" d="M308.016,43.04c0.282,0.35-2.866,2.755-7.563,3.008c-4.696,0.295-8.102-1.728-7.863-2.108
										c0.191-0.468,3.546,0.673,7.762,0.391C304.572,44.121,307.772,42.598,308.016,43.04z"/>
								</g>
							</g>
						</g>
					</g>
				</g>
			</g>
		</g>
	</g>
	<g>
		<g>
			<g>
				<g>
					<g>
						<path style="fill:#263238;" d="M173.23,112.438c-1.278,2.621-4.439,3.71-7.06,2.433c-2.621-1.278-3.71-4.439-2.432-7.06
							c1.278-2.621,4.439-3.711,7.06-2.433C173.419,106.656,174.508,109.817,173.23,112.438z"/>
					</g>
				</g>
			</g>
		</g>
		<g>
			<g>
				<g>
					<g>
						<g>
							<path style="fill:#263238;" d="M173.312,110.522c-0.317,0.066-1.488-5.376-1.705-12.18
								c-0.199-6.784-0.32-12.236-0.033-12.272c0.352-0.041,0.997,5.462,1.194,12.223
								C172.984,105.042,173.626,110.463,173.312,110.522z"/>
						</g>
					</g>
				</g>
			</g>
		</g>
		<g>
			<g>
				<g>
					<g>
						<g>
							<path style="fill:#263238;" d="M182.879,85.099c0.216,0.213-2.001,2.199-5.502,2.604c-3.497,0.44-6.124-0.961-5.964-1.219
								c0.114-0.324,2.667,0.475,5.825,0.065C180.401,86.195,182.691,84.812,182.879,85.099z"/>
						</g>
					</g>
				</g>
			</g>
		</g>
		<g>
			<g>
				<g>
					<g>
						<g>
							<path style="fill:#263238;" d="M182.761,90.577c0.245,0.194-1.88,2.264-5.326,2.416c-3.445,0.192-5.765-1.658-5.54-1.874
								c0.165-0.299,2.452,0.899,5.482,0.713C180.41,91.716,182.568,90.297,182.761,90.577z"/>
						</g>
					</g>
				</g>
			</g>
		</g>
	</g>
	<g>
		<g>
			<g>
				<g>
					<g>
						<path style="fill:#263238;" d="M334.956,135.598c0.164,2.907-2.059,5.397-4.966,5.562c-2.907,0.164-5.397-2.059-5.562-4.966
							c-0.165-2.907,2.059-5.397,4.966-5.562C332.301,130.468,334.792,132.691,334.956,135.598z"/>
					</g>
				</g>
			</g>
		</g>
		<g>
			<g>
				<g>
					<g>
						<g>
							<path style="fill:#263238;" d="M334.093,133.889c-0.244,0.212-3.918-3.959-7.423-9.781
								c-3.481-5.814-6.244-10.506-6.012-10.677c0.287-0.207,3.531,4.273,7,10.068C331.135,129.273,334.338,133.684,334.093,133.889
								z"/>
						</g>
					</g>
				</g>
			</g>
		</g>
		<g>
			<g>
				<g>
					<g>
						<g>
							<path style="fill:#263238;" d="M330.035,107.072c0.292,0.08-0.672,2.891-3.525,4.951c-2.833,2.088-5.805,2.148-5.791,1.845
								c-0.059-0.338,2.555-0.886,5.107-2.783C328.41,109.235,329.731,106.913,330.035,107.072z"/>
						</g>
					</g>
				</g>
			</g>
		</g>
		<g>
			<g>
				<g>
					<g>
						<g>
							<path style="fill:#263238;" d="M332.603,111.903c0.308,0.049-0.534,2.89-3.463,4.702c-2.908,1.847-5.831,1.366-5.741,1.068
								c-0.002-0.341,2.575-0.412,5.125-2.051C331.109,114.041,332.297,111.753,332.603,111.903z"/>
						</g>
					</g>
				</g>
			</g>
		</g>
	</g>
</g>
<g id="Speakers">
	<g>
		<g>
			<g>
				<path style="fill:#455A64;" d="M152.831,317.018H54.104c-3.598,0-6.514-2.917-6.514-6.514V165.83
					c0-3.598,2.917-6.514,6.514-6.514h98.727c3.598,0,6.514,2.917,6.514,6.514v144.674
					C159.346,314.102,156.429,317.018,152.831,317.018z"/>
			</g>
		</g>
		<g>
			<g style="opacity:0.4;">
				<g>
					
						<ellipse transform="matrix(0.7071 -0.7071 0.7071 0.7071 -161.1859 152.4807)" cx="103.468" cy="270.809" rx="36.471" ry="36.471"/>
				</g>
			</g>
			<g>
				<g>
					<path style="fill:#FF725E;" d="M103.467,313.053c-23.293,0-42.244-18.95-42.244-42.244c0-23.294,18.951-42.244,42.244-42.244
						c23.293,0,42.244,18.951,42.244,42.244C145.712,294.103,126.761,313.053,103.467,313.053z M103.467,230.565
						c-22.191,0-40.244,18.053-40.244,40.244c0,22.19,18.053,40.244,40.244,40.244s40.244-18.054,40.244-40.244
						C143.712,248.618,125.658,230.565,103.467,230.565z"/>
				</g>
			</g>
			<g>
				<g>
					
						<ellipse transform="matrix(0.665 -0.7469 0.7469 0.665 -167.5918 167.9992)" style="fill:#455A64;" cx="103.468" cy="270.809" rx="7.293" ry="7.293"/>
				</g>
			</g>
			<g style="opacity:0.2;">
				<g>
					<path style="fill:#FFFFFF;" d="M69.563,276.42l24.476-4.857c0,0-0.49-9.174,9.438-9.611l15.792-22.223
						c0,0-22.059-11.455-40.305,6.422C66.359,258.501,69.563,276.42,69.563,276.42z"/>
				</g>
			</g>
		</g>
		<g>
			<g style="opacity:0.4;">
				<g>
					
						<ellipse transform="matrix(0.7071 -0.7071 0.7071 0.7071 -106.5281 130.8785)" cx="104.72" cy="194.03" rx="21.025" ry="21.025"/>
				</g>
			</g>
			<g>
				<g>
					<path style="fill:#FF725E;" d="M104.72,218.807c-13.662,0-24.777-11.115-24.777-24.777c0-13.662,11.115-24.777,24.777-24.777
						c13.662,0,24.777,11.115,24.777,24.777C129.497,207.692,118.382,218.807,104.72,218.807z M104.72,171.253
						c-12.559,0-22.777,10.218-22.777,22.777c0,12.559,10.218,22.777,22.777,22.777c12.559,0,22.777-10.218,22.777-22.777
						C127.497,181.471,117.279,171.253,104.72,171.253z"/>
				</g>
			</g>
			<g>
				<g>
					<path style="fill:#455A64;" d="M108.924,194.03c0,2.322-1.882,4.204-4.204,4.204c-2.322,0-4.204-1.882-4.204-4.204
						c0-2.322,1.882-4.204,4.204-4.204C107.042,189.826,108.924,191.708,108.924,194.03z"/>
				</g>
			</g>
			<g style="opacity:0.2;">
				<g>
					<path style="fill:#FFFFFF;" d="M85.174,197.265l14.111-2.8c0,0-0.283-5.289,5.441-5.54l9.104-12.811
						c0,0-12.717-6.604-23.236,3.702C83.327,186.934,85.174,197.265,85.174,197.265z"/>
				</g>
			</g>
		</g>
	</g>
	<g>
		<g>
			<g>
				<path style="fill:#455A64;" d="M450.286,317.018h-98.727c-3.598,0-6.514-2.917-6.514-6.514V165.83
					c0-3.598,2.917-6.514,6.514-6.514h98.727c3.598,0,6.514,2.917,6.514,6.514v144.674
					C456.8,314.102,453.884,317.018,450.286,317.018z"/>
			</g>
		</g>
		<g>
			<g style="opacity:0.4;">
				<g>
					
						<ellipse transform="matrix(0.1999 -0.9798 0.9798 0.1999 55.4454 609.5151)" cx="400.922" cy="270.809" rx="36.471" ry="36.471"/>
				</g>
			</g>
			<g>
				<g>
					<path style="fill:#FF725E;" d="M400.922,313.053c-23.294,0-42.244-18.95-42.244-42.244c0-23.294,18.95-42.244,42.244-42.244
						c23.294,0,42.244,18.951,42.244,42.244C443.167,294.103,424.216,313.053,400.922,313.053z M400.922,230.565
						c-22.19,0-40.244,18.053-40.244,40.244c0,22.19,18.054,40.244,40.244,40.244s40.244-18.054,40.244-40.244
						C441.167,248.618,423.113,230.565,400.922,230.565z"/>
				</g>
			</g>
			<g>
				<g>
					
						<ellipse transform="matrix(0.229 -0.9734 0.9734 0.229 45.4861 599.0485)" style="fill:#455A64;" cx="400.922" cy="270.809" rx="7.293" ry="7.293"/>
				</g>
			</g>
			<g style="opacity:0.2;">
				<g>
					<path style="fill:#FFFFFF;" d="M367.017,276.42l24.477-4.857c0,0-0.491-9.174,9.438-9.611l15.792-22.223
						c0,0-22.059-11.455-40.305,6.422C363.814,258.501,367.017,276.42,367.017,276.42z"/>
				</g>
			</g>
		</g>
		<g>
			<g style="opacity:0.4;">
				<g>
					
						<ellipse transform="matrix(0.2277 -0.9737 0.9737 0.2277 121.6659 541.4591)" cx="402.175" cy="194.03" rx="21.025" ry="21.025"/>
				</g>
			</g>
			<g>
				<g>
					<path style="fill:#FF725E;" d="M402.174,218.807c-13.662,0-24.776-11.115-24.776-24.777c0-13.662,11.114-24.777,24.776-24.777
						c13.662,0,24.777,11.115,24.777,24.777C426.952,207.692,415.837,218.807,402.174,218.807z M402.174,171.253
						c-12.559,0-22.776,10.218-22.776,22.777c0,12.559,10.218,22.777,22.776,22.777c12.56,0,22.777-10.218,22.777-22.777
						C424.952,181.471,414.734,171.253,402.174,171.253z"/>
				</g>
			</g>
			<g>
				<g>
					<path style="fill:#455A64;" d="M406.379,194.03c0,2.322-1.882,4.204-4.204,4.204c-2.322,0-4.204-1.882-4.204-4.204
						c0-2.322,1.882-4.204,4.204-4.204C404.497,189.826,406.379,191.708,406.379,194.03z"/>
				</g>
			</g>
			<g style="opacity:0.2;">
				<g>
					<path style="fill:#FFFFFF;" d="M382.629,197.265l14.111-2.8c0,0-0.283-5.289,5.441-5.54l9.104-12.811
						c0,0-12.717-6.604-23.236,3.702C380.782,186.934,382.629,197.265,382.629,197.265z"/>
				</g>
			</g>
		</g>
	</g>
</g>
<g id="Device">
	<g>
		<g>
			<g>
				<g>
					<path style="fill:#263238;" d="M155.296,454.783H41.92c-3.817,0-7.027-2.647-7.464-6.155l-9.622-77.169
						c-0.515-4.128,2.973-7.748,7.464-7.748h113.376c3.817,0,7.027,2.647,7.464,6.155l9.623,77.169
						C163.274,451.162,159.786,454.783,155.296,454.783z"/>
				</g>
			</g>
			<g>
				<g>
					<path style="fill:#263238;" d="M163.679,450.804l10.2-46.723c0.671-3.073-1.67-5.98-4.815-5.98H58.871
						c-2.092,0-3.956,1.32-4.649,3.293l-15.409,43.812c-1.11,3.156,1.18,6.478,4.525,6.562l115.402,2.911
						C161.102,454.74,163.175,453.113,163.679,450.804z"/>
				</g>
			</g>
		</g>
		<g>
			<g>
				<g>
					<path style="fill:#455A64;" d="M162.022,449.004c-0.143,0.016-2.129-16.57-4.435-37.041
						c-2.307-20.478-4.061-37.087-3.918-37.103c0.143-0.016,2.128,16.566,4.435,37.044
						C160.411,432.375,162.165,448.987,162.022,449.004z"/>
				</g>
			</g>
		</g>
		<g>
			<g>
				<circle style="fill:#E0E0E0;" cx="89.625" cy="409.128" r="7.672"/>
			</g>
		</g>
		<g>
			<g>
				<g>
					<path style="fill:#263238;" d="M161.472,436.847c3.896-1.741,7.867,1.452,9.58,4.745c2.102,4.042,2.216,8.767,3.195,13.134
						c0.921,4.108,2.793,7.771,5.812,10.733c2.859,2.805,6.394,4.826,10.143,6.185c4.457,1.616,9.199,2.279,13.902,2.688
						c4.546,0.396,9.121,0.644,13.685,0.56c8.579-0.157,18.085-1.534,25.26-6.619c3.108-2.203,5.751-6.18,3.797-10.025
						c-1.638-3.223-5.749-4.061-9.048-3.904c-4.063,0.193-8.339,1.405-10.819,4.854c-2.441,3.396-1.623,7.551,0.902,10.625
						c2.546,3.1,6.375,5.041,10.116,6.297c3.95,1.325,8.208,1.839,12.362,1.528c6.546-0.491,12.938-2.952,17.831-7.375
						c9.474-8.566,11.721-22.34,11.326-34.5c-0.076-2.329-0.253-4.651-0.497-6.968c-0.167-1.584-2.668-1.601-2.5,0
						c1.279,12.157,0.906,26.361-7.03,36.424c-7.852,9.956-22.546,12.716-33.857,7.252c-3.141-1.518-6.823-3.949-7.568-7.629
						c-0.861-4.253,3.338-6.925,6.923-7.663c2.811-0.579,7.452-0.921,9.383,1.777c1.153,1.612,0.565,3.778-0.547,5.235
						c-1.244,1.63-3.115,2.692-4.903,3.623c-7.332,3.816-15.784,4.669-23.931,4.578c-4.161-0.047-8.335-0.295-12.475-0.718
						c-4.366-0.446-8.773-1.228-12.848-2.911c-3.349-1.383-6.466-3.446-8.873-6.168c-2.706-3.06-3.866-6.776-4.566-10.732
						c-1.221-6.904-2.633-16.492-11.136-17.846c-1.709-0.272-3.306-0.041-4.881,0.663
						C158.744,435.343,160.014,437.498,161.472,436.847L161.472,436.847z"/>
				</g>
			</g>
		</g>
	</g>
</g>
<g id="Dj_Console">
	<g>
		<g>
			<g>
				<rect x="185.629" y="418.335" style="fill:#263238;" width="290.365" height="20.781"/>
			</g>
		</g>
		<g>
			<g>
				<path style="fill:#455A64;" d="M185.629,387.189c-0.271,0.811,0.23,31.146,0.23,31.146h290.135l-15.98-31.402L185.629,387.189z"
					/>
			</g>
		</g>
		<g>
			<g>
				<path style="fill:#455A64;" d="M235.324,426.533c0,1.254-1.017,2.271-2.271,2.271s-2.271-1.017-2.271-2.271
					c0-1.254,1.017-2.271,2.271-2.271S235.324,425.279,235.324,426.533z"/>
			</g>
		</g>
		<g>
			<g>
				<path style="fill:#455A64;" d="M258.108,426.533c0,1.254-1.017,2.271-2.271,2.271c-1.254,0-2.271-1.017-2.271-2.271
					c0-1.254,1.017-2.271,2.271-2.271C257.092,424.262,258.108,425.279,258.108,426.533z"/>
			</g>
		</g>
		<g>
			<g>
				<g>
					<path style="fill:#455A64;" d="M246.275,426.533c-0.043,0.001-0.058-0.202-0.169-0.53c-0.109-0.323-0.349-0.784-0.839-1.129
						c-0.474-0.346-1.232-0.527-1.954-0.249c-0.716,0.257-1.326,1.02-1.319,1.907c-0.008,0.887,0.603,1.65,1.319,1.908
						c0.722,0.279,1.48,0.098,1.954-0.249c0.49-0.345,0.73-0.806,0.839-1.129C246.216,426.735,246.232,426.532,246.275,426.533
						c0.028-0.001,0.085,0.204,0.027,0.579c-0.057,0.367-0.268,0.924-0.812,1.372c-0.526,0.448-1.436,0.724-2.341,0.407
						c-0.897-0.288-1.687-1.239-1.676-2.359c-0.011-1.119,0.779-2.07,1.676-2.358c0.905-0.317,1.815-0.041,2.341,0.407
						c0.545,0.448,0.756,1.005,0.813,1.372C246.359,426.33,246.303,426.535,246.275,426.533z"/>
				</g>
			</g>
		</g>
		<g>
			<g>
				<g>
					<path style="fill:#455A64;" d="M280.039,426.533c-0.043,0.001-0.059-0.202-0.169-0.53c-0.109-0.323-0.349-0.784-0.839-1.129
						c-0.474-0.346-1.232-0.527-1.954-0.249c-0.716,0.257-1.326,1.02-1.319,1.907c-0.008,0.887,0.603,1.65,1.319,1.908
						c0.722,0.279,1.48,0.098,1.954-0.249c0.49-0.345,0.73-0.806,0.839-1.129C279.981,426.735,279.997,426.532,280.039,426.533
						c0.028-0.001,0.084,0.204,0.027,0.579c-0.057,0.367-0.268,0.924-0.813,1.372c-0.526,0.448-1.436,0.724-2.341,0.407
						c-0.897-0.288-1.687-1.239-1.676-2.359c-0.011-1.119,0.779-2.07,1.676-2.358c0.905-0.317,1.815-0.041,2.341,0.407
						c0.545,0.448,0.756,1.005,0.813,1.372C280.124,426.33,280.068,426.535,280.039,426.533z"/>
				</g>
			</g>
		</g>
		<g>
			<g>
				<g>
					<g>
						<path style="fill:#455A64;" d="M220.758,434.851c-0.016-0.016-0.031-0.339-0.049-0.929c-0.014-0.649-0.033-1.492-0.056-2.532
							c-0.028-2.22-0.066-5.275-0.112-8.93l0.217,0.217c-4.421,0.012-9.7,0.027-15.378,0.044c-0.058,0.056,0.492-0.492,0.259-0.258
							v0.003v0.007v0.013v0.026v0.052v0.105v0.209l0,0.418l0,0.83c-0.001,0.551-0.001,1.098-0.001,1.64
							c-0.002,1.084-0.004,2.147-0.005,3.187c-0.007,2.075-0.014,4.053-0.02,5.899l-0.233-0.233
							c4.491,0.047,8.288,0.087,11.044,0.117c1.309,0.025,2.368,0.046,3.169,0.062C220.333,434.815,220.74,434.833,220.758,434.851
							c0.018,0.018-0.354,0.035-1.068,0.054c-0.788,0.016-1.83,0.036-3.117,0.062c-2.793,0.029-6.642,0.069-11.195,0.117
							l-0.232,0.002l-0.001-0.235c-0.006-1.846-0.013-3.824-0.02-5.899c-0.002-1.04-0.004-2.103-0.005-3.187
							c-0.001-0.542-0.001-1.089-0.001-1.64l0-0.83l0-0.418v-0.209v-0.105v-0.052v-0.026v-0.013v-0.007v-0.003
							c-0.233,0.232,0.317-0.319,0.262-0.262c5.678,0.016,10.957,0.031,15.378,0.044l0.22,0.001l-0.003,0.216
							c-0.046,3.712-0.084,6.812-0.112,9.067c-0.023,1.02-0.042,1.847-0.056,2.484C220.79,434.575,220.774,434.867,220.758,434.851z
							"/>
					</g>
				</g>
			</g>
			<g>
				<g>
					<path style="fill:#455A64;" d="M218.962,426.057c0,0.991-0.803,1.795-1.794,1.795c-0.991,0-1.795-0.803-1.795-1.795
						c0-0.991,0.803-1.794,1.795-1.794C218.159,424.262,218.962,425.066,218.962,426.057z"/>
				</g>
			</g>
			<g>
				<g>
					<path style="fill:#455A64;" d="M218.962,431.253c0,0.991-0.803,1.794-1.794,1.794c-0.991,0-1.795-0.803-1.795-1.794
						c0-0.991,0.803-1.795,1.795-1.795C218.159,429.458,218.962,430.262,218.962,431.253z"/>
				</g>
			</g>
		</g>
		<g>
			<g>
				<path style="fill:#455A64;" d="M313.775,426.533c0,1.254-1.017,2.271-2.271,2.271c-1.254,0-2.271-1.017-2.271-2.271
					c0-1.254,1.017-2.271,2.271-2.271C312.759,424.262,313.775,425.279,313.775,426.533z"/>
			</g>
		</g>
		<g>
			<g>
				<path style="fill:#455A64;" d="M267.696,426.533c0,1.254-1.017,2.271-2.271,2.271c-1.254,0-2.271-1.017-2.271-2.271
					c0-1.254,1.017-2.271,2.271-2.271C266.679,424.262,267.696,425.279,267.696,426.533z"/>
			</g>
		</g>
		<g>
			<g>
				<path style="fill:#455A64;" d="M336.56,426.533c0,1.254-1.017,2.271-2.271,2.271s-2.271-1.017-2.271-2.271
					c0-1.254,1.017-2.271,2.271-2.271S336.56,425.279,336.56,426.533z"/>
			</g>
		</g>
		<g>
			<g>
				<g>
					<path style="fill:#455A64;" d="M324.727,426.533c-0.043,0.001-0.059-0.202-0.169-0.53c-0.109-0.323-0.349-0.784-0.839-1.129
						c-0.474-0.346-1.232-0.527-1.954-0.249c-0.716,0.257-1.326,1.02-1.319,1.907c-0.008,0.887,0.603,1.65,1.319,1.908
						c0.722,0.279,1.48,0.098,1.954-0.249c0.49-0.345,0.73-0.806,0.839-1.129C324.668,426.735,324.684,426.532,324.727,426.533
						c0.028-0.001,0.085,0.204,0.027,0.579c-0.057,0.367-0.268,0.924-0.813,1.372c-0.525,0.448-1.436,0.724-2.341,0.407
						c-0.897-0.288-1.687-1.239-1.676-2.359c-0.011-1.119,0.78-2.07,1.676-2.358c0.905-0.317,1.815-0.041,2.341,0.407
						c0.545,0.448,0.756,1.005,0.813,1.372C324.811,426.33,324.755,426.535,324.727,426.533z"/>
				</g>
			</g>
		</g>
		<g>
			<g>
				<g>
					<g>
						<path style="fill:#455A64;" d="M299.21,434.851c-0.016-0.016-0.031-0.339-0.049-0.929c-0.014-0.649-0.033-1.492-0.056-2.532
							c-0.028-2.22-0.066-5.275-0.112-8.93l0.217,0.217c-4.421,0.012-9.7,0.027-15.378,0.044c-0.058,0.056,0.492-0.492,0.259-0.258
							v0.003v0.007v0.013v0.026v0.052v0.105v0.209l0,0.418l0,0.83c0,0.551-0.001,1.098-0.001,1.64
							c-0.002,1.084-0.004,2.147-0.005,3.187c-0.007,2.075-0.014,4.053-0.02,5.899l-0.233-0.233
							c4.491,0.047,8.288,0.087,11.044,0.117c1.309,0.025,2.368,0.046,3.169,0.062C298.785,434.815,299.192,434.833,299.21,434.851
							c0.018,0.018-0.354,0.035-1.068,0.054c-0.788,0.016-1.83,0.036-3.117,0.062c-2.794,0.029-6.642,0.069-11.195,0.117
							l-0.232,0.002l-0.001-0.235c-0.006-1.846-0.013-3.824-0.02-5.899c-0.002-1.04-0.003-2.103-0.005-3.187
							c-0.001-0.542-0.001-1.089-0.001-1.64l0-0.83v-0.418l0-0.209v-0.105v-0.052v-0.026v-0.013v-0.007v-0.003
							c-0.233,0.232,0.317-0.319,0.262-0.262c5.678,0.016,10.957,0.031,15.378,0.044l0.22,0.001l-0.003,0.216
							c-0.046,3.712-0.084,6.812-0.112,9.067c-0.023,1.02-0.042,1.847-0.056,2.484C299.242,434.575,299.226,434.867,299.21,434.851z
							"/>
					</g>
				</g>
			</g>
			<g>
				<g>
					<path style="fill:#455A64;" d="M297.414,426.057c0,0.991-0.803,1.795-1.795,1.795s-1.794-0.803-1.794-1.795
						c0-0.991,0.803-1.794,1.794-1.794S297.414,425.066,297.414,426.057z"/>
				</g>
			</g>
			<g>
				<g>
					<path style="fill:#455A64;" d="M297.414,431.253c0,0.991-0.803,1.794-1.795,1.794s-1.794-0.803-1.794-1.794
						c0-0.991,0.803-1.795,1.794-1.795S297.414,430.262,297.414,431.253z"/>
				</g>
			</g>
		</g>
		<g>
			<g>
				<path style="fill:#455A64;" d="M446.15,426.533c0,1.254-1.017,2.271-2.271,2.271s-2.271-1.017-2.271-2.271
					c0-1.254,1.017-2.271,2.271-2.271S446.15,425.279,446.15,426.533z"/>
			</g>
		</g>
		<g>
			<g>
				<path style="fill:#455A64;" d="M468.935,426.533c0,1.254-1.017,2.271-2.271,2.271c-1.254,0-2.271-1.017-2.271-2.271
					c0-1.254,1.017-2.271,2.271-2.271C467.918,424.262,468.935,425.279,468.935,426.533z"/>
			</g>
		</g>
		<g>
			<g>
				<g>
					<path style="fill:#455A64;" d="M457.101,426.533c-0.043,0.001-0.059-0.202-0.169-0.53c-0.109-0.323-0.349-0.784-0.839-1.129
						c-0.474-0.346-1.232-0.527-1.954-0.249c-0.716,0.257-1.326,1.02-1.319,1.907c-0.008,0.887,0.603,1.65,1.319,1.908
						c0.722,0.279,1.48,0.098,1.954-0.249c0.49-0.345,0.73-0.806,0.839-1.129C457.043,426.735,457.058,426.532,457.101,426.533
						c0.028-0.001,0.085,0.204,0.027,0.579c-0.057,0.367-0.268,0.924-0.813,1.372c-0.526,0.448-1.436,0.724-2.341,0.407
						c-0.897-0.288-1.687-1.239-1.676-2.359c-0.011-1.119,0.779-2.07,1.676-2.358c0.905-0.317,1.815-0.041,2.341,0.407
						c0.545,0.448,0.756,1.005,0.813,1.372C457.186,426.33,457.129,426.535,457.101,426.533z"/>
				</g>
			</g>
		</g>
		<g>
			<g>
				<g>
					<g>
						<path style="fill:#455A64;" d="M431.585,434.851c-0.016-0.016-0.031-0.339-0.049-0.929c-0.014-0.649-0.033-1.492-0.056-2.532
							c-0.028-2.22-0.066-5.275-0.112-8.93l0.217,0.217c-4.421,0.012-9.7,0.027-15.378,0.044c-0.058,0.056,0.492-0.492,0.259-0.258
							v0.003v0.007v0.013v0.026v0.052v0.105v0.209l0,0.418l0,0.83c0,0.551-0.001,1.098-0.001,1.64
							c-0.002,1.084-0.004,2.147-0.005,3.187c-0.007,2.075-0.014,4.053-0.02,5.899l-0.233-0.233
							c4.491,0.047,8.288,0.087,11.044,0.117c1.309,0.025,2.368,0.046,3.169,0.062C431.16,434.815,431.567,434.833,431.585,434.851
							c0.018,0.018-0.354,0.035-1.068,0.054c-0.788,0.016-1.83,0.036-3.117,0.062c-2.793,0.029-6.642,0.069-11.195,0.117
							l-0.232,0.002l-0.001-0.235c-0.006-1.846-0.013-3.824-0.02-5.899c-0.002-1.04-0.004-2.103-0.005-3.187
							c0-0.542-0.001-1.089-0.001-1.64l0-0.83v-0.418l0-0.209v-0.105v-0.052v-0.026v-0.013v-0.007v-0.003
							c-0.233,0.232,0.317-0.319,0.262-0.262c5.678,0.016,10.957,0.031,15.378,0.044l0.22,0.001l-0.003,0.216
							c-0.046,3.712-0.084,6.812-0.112,9.067c-0.023,1.02-0.042,1.847-0.056,2.484C431.616,434.575,431.601,434.867,431.585,434.851
							z"/>
					</g>
				</g>
			</g>
			<g>
				<g>
					<path style="fill:#455A64;" d="M429.788,426.057c0,0.991-0.803,1.795-1.795,1.795c-0.991,0-1.794-0.803-1.794-1.795
						c0-0.991,0.803-1.794,1.794-1.794C428.985,424.262,429.788,425.066,429.788,426.057z"/>
				</g>
			</g>
			<g>
				<g>
					<path style="fill:#455A64;" d="M429.788,431.253c0,0.991-0.803,1.794-1.795,1.794c-0.991,0-1.794-0.803-1.794-1.794
						c0-0.991,0.803-1.795,1.794-1.795C428.985,429.458,429.788,430.262,429.788,431.253z"/>
				</g>
			</g>
		</g>
		<g>
			<g>
				<g>
					<path style="fill:#263238;" d="M211.828,413.078c-0.143,0.013-0.691-4.783-1.224-10.711c-0.533-5.93-0.849-10.746-0.705-10.759
						c0.143-0.013,0.691,4.782,1.224,10.712C211.656,408.248,211.972,413.065,211.828,413.078z"/>
				</g>
			</g>
		</g>
		<g>
			<g>
				<g>
					<path style="fill:#263238;" d="M232.203,413.078c-0.143,0.013-0.691-4.783-1.224-10.711c-0.533-5.93-0.849-10.746-0.705-10.759
						c0.143-0.013,0.691,4.782,1.224,10.712C232.031,408.248,232.346,413.065,232.203,413.078z"/>
				</g>
			</g>
		</g>
		<g>
			<g>
				<g>
					<path style="fill:#263238;" d="M252.578,413.078c-0.143,0.013-0.691-4.783-1.224-10.711c-0.533-5.93-0.849-10.746-0.705-10.759
						c0.143-0.013,0.691,4.782,1.224,10.712C252.406,408.248,252.721,413.065,252.578,413.078z"/>
				</g>
			</g>
		</g>
		<g>
			<g>
				<g>
					<path style="fill:#263238;" d="M272.953,413.078c-0.143,0.013-0.691-4.783-1.224-10.711c-0.533-5.93-0.849-10.746-0.705-10.759
						c0.143-0.013,0.691,4.782,1.224,10.712C272.78,408.248,273.096,413.065,272.953,413.078z"/>
				</g>
			</g>
		</g>
		<g>
			<g>
				<g>
					<g>
						<ellipse style="fill:#263238;" cx="366.172" cy="401.752" rx="59.971" ry="12.005"/>
					</g>
				</g>
				<g>
					<g>
						<g>
							<ellipse style="fill:#E0E0E0;" cx="366.172" cy="396.125" rx="59.971" ry="12.005"/>
						</g>
					</g>
				</g>
				<g style="opacity:0.3;">
					<g>
						<path style="fill:#FFFFFF;" d="M366.903,396.125l-15.018-11.661c0,0-23.888,0.783-34.84,4.994L366.903,396.125z"/>
					</g>
				</g>
				<g style="opacity:0.3;">
					<g>
						<path style="fill:#FFFFFF;" d="M420.719,401.12l-50.545-6.313h-3.27l24.646,12.198
							C391.549,407.005,412.15,405.384,420.719,401.12z"/>
					</g>
				</g>
				<g>
					<g>
						<path style="fill:#F5F5F5;" d="M336.187,394.807c0,2.955,13.425,5.35,29.986,5.35c16.561,0,29.986-2.395,29.986-5.35
							c0-2.954-13.425-5.35-29.986-5.35C349.612,389.458,336.187,391.853,336.187,394.807z"/>
					</g>
				</g>
				<g>
					<g>
						<path style="fill:#263238;" d="M365.522,395.94c0.651,0.821,2.322,0.764,2.762,0v-5.262c-0.921-0.511-1.842-0.511-2.762,0
							V395.94z"/>
					</g>
				</g>
			</g>
			<g>
				<g>
					<polygon style="fill:#263238;" points="447.036,401.02 426.437,389.565 397.952,381.593 398.221,380.63 426.872,388.662 
						447.522,400.147 					"/>
				</g>
			</g>
			<g>
				<g>
					<path style="fill:#263238;" d="M403.173,380.195v2.015l-4.622,1.795c0,0-9.244-2.385-9.358-2.292c-0.114,0.094,0-1.885,0-1.885
						l5.135-1.612L403.173,380.195z"/>
				</g>
			</g>
			<g>
				<g>
					
						<rect x="437.613" y="404.052" transform="matrix(-1 -1.224647e-16 1.224647e-16 -1 900.7325 813.5521)" style="fill:#263238;" width="25.506" height="5.447"/>
				</g>
			</g>
			<g>
				<g>
					<path style="fill:#E0E0E0;" d="M437.613,404.052c-0.346-0.64-4.061-7.927-4.061-7.927h22.43l7.138,7.927H437.613z"/>
				</g>
			</g>
			<g>
				<g>
					<polygon style="fill:#263238;" points="433.552,396.125 433.552,401.752 437.613,409.5 437.613,404.052 					"/>
				</g>
			</g>
		</g>
		<g>
			<g>
				<g>
					<path style="fill:#263238;" d="M290.042,418.283c-0.142,0.02-1.239-6.925-2.449-15.51c-1.21-8.588-2.076-15.564-1.934-15.584
						c0.142-0.02,1.239,6.923,2.449,15.512C289.319,411.286,290.185,418.263,290.042,418.283z"/>
				</g>
			</g>
		</g>
		<g>
			<g>
				<rect x="206.961" y="406.712" style="fill:#263238;" width="8.897" height="2.752"/>
			</g>
		</g>
		<g>
			<g>
				<rect x="226.152" y="395.987" style="fill:#263238;" width="8.897" height="2.752"/>
			</g>
		</g>
		<g>
			<g>
				<rect x="247.165" y="405.949" style="fill:#263238;" width="8.897" height="2.752"/>
			</g>
		</g>
		<g>
			<g>
				<rect x="266.752" y="399.515" style="fill:#263238;" width="8.897" height="2.752"/>
			</g>
		</g>
	</g>
</g>
<g id="Character">
	<g>
		<g>
			<g>
				<g>
					<g>
						<g>
							<path style="fill:#263238;" d="M301.819,166.456c2.908-10.297-1.49-21.02-6.225-30.615
								c-4.605-9.331-12.357-20.327-12.357-20.327c5.507-9.442,0.751-24.381-5.585-29.145c-6.335-4.764-13.294-3.405-14.316,4.456
								l-8.143,16.874c-3.926,24.368-7.852,48.736-11.778,73.104c-2.38,14.777,8.074,20.108,17.853,31.439l0,0
								c6.202,1.245,11.556,5.109,14.71,10.591c3.235,5.623,7.133,12.127,7.292,13.664c9.387-0.717,25.922-6.081,26.466-15.48
								c1.145-19.787-12.702-29.478-12.943-33.925C296.384,179.57,298.812,177.103,301.819,166.456z"/>
						</g>
					</g>
				</g>
				<g>
					<g>
						
							<ellipse transform="matrix(0.9685 -0.2491 0.2491 0.9685 -26.7006 76.1308)" style="fill:#455A64;" cx="287.426" cy="143.554" rx="15.91" ry="19.987"/>
					</g>
				</g>
				<g>
					<g>
						<g>
							<g>
								<g>
									<path style="fill:#FFBF9D;" d="M290.247,119.555c-1.554-19.784-18.042-35.054-37.886-35.094l-1.972-0.004
										c-21.265,1.198-32.126,19.927-30.34,41.15l5.621,81.791l46.623,13.312l-0.122-28.965c0,0,20.447-3.136,20.741-23.572
										C293.054,158.303,291.693,137.956,290.247,119.555z"/>
								</g>
							</g>
							<g>
								<g>
									<g>
										<g>
											<g>
												<g>
													<g>
														<g>
															<g>
																<g>
																	<g>
																		<g>
																			<g>
																				<g>
																					<g>
																						<path style="fill:#263238;" d="M256.931,130.036c-0.363,0.38-2.574-1.26-5.712-1.258
																							c-3.136-0.043-5.445,1.568-5.785,1.182c-0.167-0.17,0.2-0.857,1.209-1.585
																							c0.989-0.726,2.675-1.43,4.632-1.418c1.956,0.015,3.6,0.738,4.545,1.477
																							C256.781,129.178,257.109,129.867,256.931,130.036z"/>
																					</g>
																				</g>
																			</g>
																		</g>
																	</g>
																</g>
															</g>
														</g>
													</g>
												</g>
											</g>
										</g>
									</g>
								</g>
							</g>
							<g>
								<g>
									<g>
										<g>
											<g>
												<g>
													<g>
														<g>
															<g>
																<g>
																	<g>
																		<path style="fill:#FF9A6C;" d="M272.341,191.716c0,0-13.052,0.758-26.762-7.892c0,0,6.267,14.72,26.663,12.922
																			L272.341,191.716z"/>
																	</g>
																</g>
															</g>
														</g>
													</g>
												</g>
											</g>
										</g>
									</g>
								</g>
							</g>
							<g>
								<g>
									<g>
										<g>
											<g>
												<g>
													<g>
														<g>
															<g>
																<g>
																	<g>
																		<g>
																			<g>
																				<g>
																					<path style="fill:#263238;" d="M280.143,140.611c0.052,1.541-1.211,2.855-2.82,2.939
																						c-1.606,0.082-2.952-1.096-3.003-2.637c-0.051-1.541,1.211-2.858,2.817-2.941
																						C278.745,137.889,280.091,139.07,280.143,140.611z"/>
																				</g>
																			</g>
																		</g>
																	</g>
																</g>
															</g>
														</g>
													</g>
												</g>
											</g>
										</g>
									</g>
								</g>
							</g>
							<g>
								<g>
									<g>
										<g>
											<g>
												<g>
													<g>
														<g>
															<g>
																<g>
																	<g>
																		<g>
																			<g>
																				<g>
																					<g>
																						<path style="fill:#263238;" d="M285.833,129.545c-0.362,0.38-2.569-1.261-5.711-1.259
																							c-3.137-0.043-5.445,1.568-5.785,1.182c-0.167-0.171,0.203-0.857,1.208-1.586
																							c0.989-0.726,2.676-1.429,4.632-1.417c1.956,0.015,3.6,0.738,4.545,1.478
																							C285.687,128.686,286.012,129.375,285.833,129.545z"/>
																					</g>
																				</g>
																			</g>
																		</g>
																	</g>
																</g>
															</g>
														</g>
													</g>
												</g>
											</g>
										</g>
									</g>
								</g>
							</g>
							<g>
								<g>
									<g>
										<g>
											<g>
												<g>
													<g>
														<g>
															<g>
																<g>
																	<g>
																		<g>
																			<g>
																				<g>
																					<path style="fill:#263238;" d="M253.476,141.718c0.051,1.541-1.212,2.855-2.82,2.938
																						c-1.606,0.083-2.951-1.096-3.003-2.638c-0.051-1.541,1.212-2.857,2.817-2.94
																						C252.079,138.995,253.425,140.176,253.476,141.718z"/>
																				</g>
																			</g>
																		</g>
																	</g>
																</g>
															</g>
														</g>
													</g>
												</g>
											</g>
										</g>
									</g>
								</g>
							</g>
							<g style="opacity:0.6;">
								<g>
									
										<ellipse transform="matrix(0.7071 -0.7071 0.7071 0.7071 -14.4691 239.6622)" cx="282.063" cy="137.297" rx="13.18" ry="13.18"/>
								</g>
							</g>
							<g style="opacity:0.6;">
								<g>
									<g>
										
											<ellipse transform="matrix(0.3796 -0.9251 0.9251 0.3796 29.5007 318.5869)" cx="252.299" cy="137.297" rx="13.18" ry="13.18"/>
									</g>
								</g>
							</g>
							<g>
								<g>
									<g>
										<g>
											<path style="fill:#455A64;" d="M264.974,132.113c0.213,0.156,1.188-1.037,2.772-0.961
												c1.584,0.081,2.437,1.365,2.664,1.23c0.118-0.049,0.097-0.486-0.306-1.035c-0.386-0.538-1.219-1.148-2.309-1.206
												c-1.089-0.049-1.978,0.476-2.416,0.973C264.925,131.619,264.861,132.052,264.974,132.113z"/>
										</g>
									</g>
								</g>
							</g>
							<g>
								<g>
									<g>
										<g>
											<g>
												<g>
													<g>
														<g>
															<g>
																<g>
																	<g>
																		<g>
																			<g>
																				<g>
																					<path style="fill:#263238;" d="M266.313,153.381c-0.015-0.179,1.938-0.512,5.102-0.91
																						c0.802-0.081,1.562-0.239,1.698-0.786c0.19-0.579-0.144-1.444-0.53-2.378c-0.75-1.942-1.535-3.978-2.359-6.111
																						c-3.276-8.701-5.645-15.854-5.294-15.983c0.352-0.129,3.292,6.819,6.568,15.52
																						c0.788,2.146,1.542,4.191,2.259,6.148c0.302,0.912,0.822,1.947,0.41,3.148
																						c-0.217,0.599-0.807,1.033-1.321,1.17c-0.514,0.156-0.966,0.164-1.362,0.186
																						C268.299,153.549,266.324,153.559,266.313,153.381z"/>
																				</g>
																			</g>
																		</g>
																	</g>
																</g>
															</g>
														</g>
													</g>
												</g>
											</g>
										</g>
									</g>
								</g>
							</g>
							<g>
								<g>
									<g>
										<g>
											<g>
												<g>
													<g>
														<g>
															<g>
																<g>
																	<g>
																		<g>
																			<g>
																				<g>
																					<path style="fill:#263238;" d="M257.066,155.534c0.511-0.028,0.51,3.38,3.423,5.806
																						c2.908,2.433,6.542,2.058,6.568,2.535c0.047,0.214-0.811,0.66-2.345,0.699c-1.505,0.049-3.7-0.439-5.483-1.923
																						c-1.777-1.488-2.538-3.469-2.652-4.868C256.451,156.357,256.832,155.514,257.066,155.534z"/>
																				</g>
																			</g>
																		</g>
																	</g>
																</g>
															</g>
														</g>
													</g>
												</g>
											</g>
										</g>
									</g>
								</g>
							</g>
							<g>
								<g>
									<g>
										<g>
											<g>
												<g>
													<g>
														<g>
															<g>
																<g>
																	<path style="fill:#263238;" d="M255.799,117.762c-0.311,0.853-3.446,0.442-7.131,0.879
																		c-3.695,0.362-6.668,1.435-7.155,0.668c-0.217-0.368,0.303-1.169,1.506-1.994c1.192-0.823,3.094-1.604,5.306-1.845
																		c2.212-0.237,4.237,0.118,5.578,0.667C255.254,116.684,255.933,117.357,255.799,117.762z"/>
																</g>
															</g>
														</g>
													</g>
												</g>
											</g>
										</g>
									</g>
								</g>
							</g>
							<g>
								<g>
									<g>
										<g>
											<g>
												<g>
													<g>
														<g>
															<g>
																<g>
																	<path style="fill:#263238;" d="M284.698,120.453c-0.554,0.712-2.716-0.033-5.317-0.073
																		c-2.6-0.132-4.806,0.469-5.311-0.278c-0.221-0.363,0.127-1.076,1.091-1.75c0.95-0.671,2.538-1.217,4.325-1.16
																		c1.787,0.06,3.335,0.71,4.239,1.443C284.642,119.371,284.942,120.106,284.698,120.453z"/>
																</g>
															</g>
														</g>
													</g>
												</g>
											</g>
										</g>
									</g>
								</g>
							</g>
							<g>
								<g>
									<path style="fill:#263238;" d="M293.91,119.579l-2.456,9.822c-1.899-2.524-3.375-5.35-4.403-8.337
										c-2.189-6.363-2.059-9.566-5.752-15.238c-0.713-1.095-1.629-2.037-2.624-2.84c-3.292-2.659-7.581-3.731-11.791-3.309
										c-3.935,0.394-8.46,1.284-12.081-1.1c-8.052-5.301-14.108-2.634-14.108-2.634l-2.947,1.481l1.237,10.731
										c0.871,8.31-1.056,14.062-3.94,18.876c-1.664,2.778-2.941,5.794-3.493,8.985c-0.32,1.853-0.345,3.71,0.328,5.913
										c1.751,5.728,4.163,11.498,3.642,17.464c-0.669,7.658-6.115,14.494-5.799,22.175c0.166,4.046,0.813,9.471,2.16,13.29
										c1.347,3.819-0.493,8.684-5.459,9.63l-25.307,8.015c-8.382-13.24,0.965-19.202,6.613-24.329
										c1.751-1.59,3.311-2.946,1.751-6.239c-3.82-8.066-12.493-8.659-10.453-26.4c1.25-10.874,7.426-13.715,8.486-19.606
										c0.734-4.079-1.391-8.354-0.293-12.35c1.069-3.892,4.738-6.203,7.779-8.987c-0.055-2.944-0.816-5.886,0.032-8.719
										c1.012-3.386,3.65-7.788,6.713-9.549c1.739-1,4.34-2.285,6.71-2.742c0,0,0.039,0.156,0.036-0.173
										c-0.042-5.858,10.176-14.646,13.529-16.258c10.685-5.135,16.273-0.533,28.015,1.093s18.973,3.443,22.886,14.633
										c0,0,2.274,8.219,2.321,14.256C295.309,115.395,293.91,119.579,293.91,119.579z"/>
								</g>
							</g>
							<g>
								<g>
									<g>
										<path style="fill:#455A64;" d="M210.039,129.54c-0.017,0.004-0.065-0.147-0.139-0.44
											c-0.084-0.292-0.177-0.728-0.237-1.302c-0.12-1.136-0.152-2.847,0.435-4.839c0.56-1.981,1.733-4.257,3.751-6.142
											c1.004-0.937,2.238-1.745,3.614-2.323c1.373-0.589,2.862-0.991,4.378-1.356c1.518-0.366,2.995-0.699,4.376-1.152
											c1.377-0.456,2.648-1.05,3.783-1.747c2.284-1.385,3.986-3.146,5.205-4.75c2.415-3.277,2.897-5.86,3.022-5.8
											c0.017,0.005-0.012,0.16-0.084,0.453c-0.067,0.295-0.184,0.725-0.381,1.264c-0.385,1.078-1.061,2.62-2.26,4.3
											c-1.204,1.664-2.918,3.494-5.249,4.94c-1.157,0.727-2.466,1.349-3.875,1.824c-1.41,0.47-2.904,0.809-4.413,1.174
											c-1.51,0.364-2.969,0.756-4.301,1.32c-1.335,0.555-2.512,1.314-3.49,2.207c-1.959,1.795-3.133,3.979-3.722,5.894
											c-0.616,1.925-0.642,3.593-0.586,4.715c0.028,0.567,0.088,1.003,0.138,1.298
											C210.044,129.377,210.057,129.536,210.039,129.54z"/>
									</g>
								</g>
							</g>
							<g>
								<g>
									<g>
										<g>
											<path style="fill:#FFBF9D;" d="M223.107,140.743c-0.348-0.151-14.033-4.182-13.616,9.79
												c0.417,13.972,14.359,10.671,14.371,10.27C223.875,160.401,223.107,140.743,223.107,140.743z"/>
										</g>
									</g>
								</g>
							</g>
							<g>
								<g>
									<g>
										<g>
											<path style="fill:#FF9A6C;" d="M220.666,155.637c-0.063-0.043-0.239,0.178-0.645,0.379
												c-0.395,0.195-1.082,0.343-1.818,0.092c-1.492-0.498-2.805-2.804-2.948-5.32c-0.074-1.27,0.157-2.489,0.577-3.505
												c0.396-1.035,1.036-1.769,1.775-1.923c0.734-0.193,1.274,0.236,1.456,0.624c0.199,0.385,0.119,0.666,0.194,0.688
												c0.04,0.034,0.293-0.243,0.163-0.817c-0.066-0.276-0.24-0.601-0.576-0.859c-0.344-0.263-0.841-0.387-1.357-0.315
												c-1.075,0.107-2.015,1.127-2.478,2.242c-0.521,1.122-0.81,2.493-0.728,3.92c0.174,2.813,1.694,5.405,3.731,5.928
												c0.99,0.227,1.801-0.094,2.215-0.436C220.651,155.975,220.715,155.661,220.666,155.637z"/>
										</g>
									</g>
								</g>
							</g>
						</g>
						<g>
							<g>
								<g>
									<path style="fill:#263238;" d="M232.997,98.577c0.007-0.005,0.013-0.009,0.021-0.014c0.092-0.005,0.181,0.002,0.274-0.009
										L232.997,98.577z"/>
								</g>
							</g>
						</g>
						<g>
							<g>
								<g>
									<g>
										<path style="fill:#455A64;" d="M219.98,140.376c0.094,0.278,4.33-0.957,9.636-2.082c5.304-1.143,9.674-1.747,9.646-2.039
											c-0.019-0.265-4.485-0.108-9.857,1.049C224.03,138.444,219.889,140.126,219.98,140.376z"/>
									</g>
								</g>
							</g>
						</g>
					</g>
				</g>
				<g>
					<g>
						
							<ellipse transform="matrix(0.9685 -0.2491 0.2491 0.9685 -30.0036 59.2628)" style="fill:#455A64;" cx="219.129" cy="148.167" rx="15.91" ry="19.987"/>
					</g>
				</g>
				<g>
					<g>
						<g>
							<path style="fill:#263238;" d="M217.461,133.039c-0.004,0.085-1.054-0.281-2.927,0.04c-0.92,0.204-2.021,0.616-3.114,1.401
								c-1.09,0.779-2.174,1.907-3.047,3.366c-0.855,1.465-1.539,3.234-1.777,5.235c-0.298,2.007-0.5,4.168-0.134,6.417
								c0.375,2.231,1.053,4.576,2.269,6.734c1.219,2.14,2.968,4.165,5.172,5.561l0.018,0.011c0.883,0.598,1.979,0.996,3.124,1.123
								c2.792,0.307,5.577-0.853,7.459-2.694c1.903-1.871,2.972-4.343,3.485-6.737c0.984-4.857,0.021-9.468-1.615-12.801
								c-1.646-3.383-4.051-5.463-5.888-6.436c-0.922-0.499-1.693-0.783-2.218-0.955C217.74,133.132,217.456,133.06,217.461,133.039
								c0.002-0.009,0.075-0.001,0.216,0.024c0.141,0.025,0.35,0.068,0.62,0.14c0.54,0.141,1.33,0.396,2.283,0.876
								c1.9,0.934,4.4,3.017,6.123,6.451c1.711,3.385,2.738,8.069,1.755,13.064c-0.516,2.464-1.605,5.031-3.598,7.003
								c-1.982,1.943-4.892,3.17-7.875,2.847c-1.222-0.136-2.404-0.565-3.356-1.211l0.018,0.011
								c-2.339-1.486-4.093-3.55-5.354-5.767c-1.247-2.237-1.923-4.621-2.294-6.911c-0.363-2.309-0.134-4.542,0.183-6.545
								c0.263-2.045,0.989-3.87,1.888-5.36c0.917-1.487,2.051-2.63,3.19-3.411c1.141-0.787,2.288-1.184,3.238-1.363
								c0.961-0.133,1.716-0.103,2.213-0.016C217.208,132.966,217.465,133.023,217.461,133.039z"/>
						</g>
					</g>
				</g>
				<g>
					<g>
						<path style="fill:#455A64;" d="M225.059,89.148c3.507-4.924,6.644-6.908,9.138-9.118c2.191-1.503,6.062-3.608,10.494-4.693
							c9.161-2.241,19.69,1.845,19.69,1.845c-13.013-0.262-21.572,0.599-28.224,7.373c-14.049,17.969-13.814,45.898-13.814,45.898
							l-7.834-0.7C214.51,129.754,212.89,106.232,225.059,89.148z"/>
					</g>
				</g>
				<g>
					<g>
						<g>
							<path style="fill:#263238;" d="M212.035,129.513c-0.031-0.049,0.594-0.503,1.774-0.852c1.171-0.358,2.895-0.52,4.741-0.244
								c1.845,0.276,3.433,0.837,4.555,1.27c1.122,0.441,1.793,0.764,1.769,0.829c-0.025,0.07-0.743-0.132-1.889-0.481
								c-1.146-0.342-2.725-0.837-4.51-1.103c-1.783-0.266-3.427-0.168-4.576,0.086C212.744,129.262,212.073,129.59,212.035,129.513
								z"/>
						</g>
					</g>
				</g>
				<g>
					<g>
						<g>
							<path style="fill:#E0E0E0;" d="M274.076,78.888c-0.013,0.136-2.253-0.588-5.897-0.195c-1.809,0.194-3.944,0.708-6.116,1.745
								c-2.171,1.016-4.373,2.575-6.179,4.674c-1.806,2.07-2.985,4.588-3.028,6.956c-0.023,1.177,0.267,2.29,0.781,3.2
								c0.512,0.914,1.203,1.637,1.915,2.19c1.433,1.107,2.819,1.692,3.75,2.11c0.942,0.408,1.469,0.625,1.456,0.662
								c-0.011,0.031-0.561-0.121-1.531-0.474c-0.96-0.364-2.383-0.898-3.899-2.007c-0.752-0.555-1.501-1.3-2.066-2.268
								c-0.567-0.961-0.898-2.163-0.886-3.417c0.022-2.529,1.248-5.15,3.113-7.291c1.859-2.161,4.134-3.752,6.37-4.769
								c2.237-1.039,4.433-1.526,6.282-1.676c1.853-0.153,3.361-0.02,4.378,0.169c0.513,0.072,0.897,0.2,1.162,0.26
								C273.945,78.826,274.081,78.871,274.076,78.888z"/>
						</g>
					</g>
				</g>
				<g>
					<g>
						<g>
							<path style="fill:#455A64;" d="M293.341,96.401c-0.056,0.006-0.01-0.63-0.395-1.659c-0.375-1.019-1.287-2.399-2.942-3.459
								c-1.639-1.065-3.885-1.881-6.414-2.482c-2.535-0.598-5.42-0.852-8.418-0.629c-3,0.233-5.807,0.94-8.222,1.918
								c-2.416,0.964-4.474,2.196-5.712,3.712c-1.253,1.502-1.619,3.144-1.596,4.22c0.017,1.097,0.305,1.669,0.25,1.685
								c-0.014,0.006-0.091-0.129-0.198-0.406c-0.102-0.278-0.218-0.705-0.255-1.272c-0.086-1.117,0.234-2.85,1.513-4.46
								c1.26-1.619,3.374-2.922,5.816-3.924c2.449-1.02,5.308-1.756,8.364-1.993c3.054-0.227,5.994,0.047,8.568,0.681
								c2.569,0.639,4.83,1.497,6.509,2.643c1.692,1.139,2.602,2.623,2.928,3.698c0.172,0.54,0.223,0.98,0.233,1.276
								C293.38,96.246,293.355,96.401,293.341,96.401z"/>
						</g>
					</g>
				</g>
				<g>
					<g>
						<g>
							<path style="fill:none;stroke:#FBFBFB;stroke-width:0.05;stroke-miterlimit:10;" d="M239.656,112.324"/>
						</g>
					</g>
				</g>
			</g>
			<g>
				<g>
					<g>
						<path style="fill:#263238;" d="M251.081,157.511c-0.127-0.042,0.433-1.44,1.888-2.491c1.446-1.065,2.949-1.17,2.949-1.036
							c0.033,0.152-1.313,0.471-2.643,1.457C251.931,156.406,251.215,157.589,251.081,157.511z"/>
					</g>
				</g>
			</g>
			<g>
				<g>
					<g>
						<g>
							<path style="fill:#263238;" d="M268.832,186.101c-0.118,0.068-0.845-1.064-1.204-2.663c-0.368-1.597-0.201-2.932-0.066-2.922
								c0.152,0.003,0.221,1.284,0.574,2.807C268.476,184.848,268.967,186.033,268.832,186.101z"/>
						</g>
					</g>
				</g>
				<g>
					<g>
						<g>
							<path style="fill:#263238;" d="M271.905,187.28c-0.143,0.013-0.391-1.435-0.554-3.234c-0.163-1.799-0.179-3.268-0.035-3.281
								c0.143-0.013,0.391,1.435,0.554,3.234C272.033,185.798,272.049,187.267,271.905,187.28z"/>
						</g>
					</g>
				</g>
				<g>
					<g>
						<g>
							<path style="fill:#263238;" d="M274.488,185.159c-0.143-0.04,0.05-1.126,0.167-2.467c0.124-1.341,0.126-2.443,0.275-2.458
								c0.138-0.017,0.372,1.107,0.244,2.504C275.051,184.135,274.62,185.2,274.488,185.159z"/>
						</g>
					</g>
				</g>
				<g>
					<g>
						<g>
							<path style="fill:#263238;" d="M277.379,183.716c-0.144-0.03-0.056-1.011,0.052-2.209c0.111-1.199,0.202-2.179,0.348-2.182
								c0.141-0.005,0.285,0.997,0.171,2.229C277.838,182.786,277.516,183.746,277.379,183.716z"/>
						</g>
					</g>
				</g>
				<g>
					<g>
						<g>
							<path style="fill:#263238;" d="M264.711,183.716c-0.138,0.03-0.46-0.929-0.57-2.162c-0.114-1.233,0.03-2.234,0.171-2.229
								c0.147,0.003,0.237,0.984,0.348,2.182C264.766,182.705,264.854,183.686,264.711,183.716z"/>
						</g>
					</g>
				</g>
			</g>
		</g>
		<g>
			<g>
				<g>
					<path style="fill:#FFBF9D;" d="M314.527,267.908l44.756,45.016l19.472,48.363l23.027-1.899c0,0-7.097-45.843-12.553-59.272
						c-5.457-13.429-52.86-64.226-52.86-64.226L314.527,267.908z"/>
				</g>
			</g>
			<g>
				<g>
					<path style="fill:#263238;" d="M360.848,263.603c-3.577,3.294-4.02,9.328-7.659,12.55c-2.67,2.364-6.521,2.727-9.776,4.181
						c-3.915,1.75-6.737,4.46-8.075,8.608l3.968,3.965c1.337-4.148,3.214-6.035,7.128-7.784c3.255-1.455,7.106-1.817,9.776-4.181
						c3.64-3.222,3.958-9.177,7.535-12.471l0.817-0.516L360.848,263.603z"/>
				</g>
			</g>
			<g>
				<g>
					<path style="fill:#FFBF9D;" d="M419.315,391.865c0.098-0.291-0.415-10.537-1.628-14.052
						c-1.213-3.516-10.776-10.943-13.356-13.256c-2.58-2.313-2.549-5.532-2.549-5.532l-23.027,1.899c0,0,0.728,3.853-0.491,4.967
						c-1.22,1.114-5.019,5.884-6.344,7.708c-1.325,1.824-5.578,1.712-5.202,4.219c0.376,2.507,1.657,4.28,4.346,4.443
						c2.688,0.163,4.54-0.683,6.796-0.357c2.256,0.326,2.949,1.732,6.54,0.132c3.591-1.6,6.292-4.729,6.292-4.729l3.957,1.008
						c0,0,5.629,20.93,8.246,21.806c2.618,0.876,4.329,1.457,4.475-2.13c0.146-3.587-2.541-17.435-2.541-17.435l0.242-2.446
						c0,0,3.426,3.22,3.833,5.421c0.407,2.201,1.077,5.775,1.963,7.676c2.232,4.787,5.46,1.171,5.46,1.171l0,0
						C416.328,392.377,418.579,394.056,419.315,391.865z"/>
				</g>
			</g>
			<g>
				<g>
					<g>
						<path style="fill:#FF9A6C;" d="M389.229,376.54c0.01-0.036,0.428,0.053,1.178,0.227c0.751,0.172,1.834,0.427,3.179,0.708
							c1.345,0.281,2.952,0.587,4.747,0.86c0.88,0.134,1.85,0.27,2.688-0.056c0.408-0.162,0.749-0.471,0.907-0.884
							c0.165-0.411,0.165-0.904,0.037-1.362c-0.339-0.906-0.763-1.945-1.488-2.4c-0.852-0.515-1.657-1.037-2.418-1.542
							c-1.52-1.011-2.861-1.955-3.993-2.739c-1.065-0.729-1.964-1.345-2.688-1.841c-0.637-0.432-0.992-0.668-0.972-0.703
							c0.016-0.028,0.406,0.15,1.078,0.53c0.673,0.378,1.628,0.96,2.786,1.707c1.186,0.774,2.552,1.665,4.051,2.643
							c0.764,0.492,1.57,1.001,2.418,1.506c0.494,0.292,0.817,0.76,1.078,1.218c0.257,0.483,0.467,0.923,0.65,1.479
							c0.152,0.551,0.159,1.151-0.058,1.695c-0.21,0.55-0.685,0.969-1.197,1.165c-1.044,0.386-2.062,0.197-2.955,0.057
							c-1.802-0.301-3.412-0.646-4.753-0.975c-1.342-0.328-2.415-0.639-3.151-0.872C389.619,376.727,389.22,376.573,389.229,376.54z
							"/>
					</g>
				</g>
			</g>
			<g>
				<g>
					<g>
						<path style="fill:#FF9A6C;" d="M375.297,372.688c0.048-0.118,2.114,0.911,3.884,3.072c1.79,2.147,2.405,4.372,2.279,4.397
							c-0.148,0.062-0.957-2.003-2.68-4.065C377.08,374.012,375.208,372.822,375.297,372.688z"/>
					</g>
				</g>
			</g>
			<g>
				<g>
					<g>
						<path style="fill:#FF9A6C;" d="M374.389,377.06c-0.133,0.065-0.597-0.964-1.741-1.518c-1.138-0.565-2.238-0.313-2.267-0.459
							c-0.02-0.063,0.23-0.222,0.696-0.297c0.459-0.076,1.141-0.035,1.801,0.288c0.659,0.323,1.108,0.841,1.326,1.252
							C374.428,376.741,374.452,377.038,374.389,377.06z"/>
					</g>
				</g>
			</g>
			<g>
				<g>
					<g>
						<path style="fill:#FF9A6C;" d="M406.581,370.266c0.018-0.03,0.345,0.128,0.914,0.449c0.568,0.323,1.385,0.803,2.349,1.474
							c0.958,0.674,2.082,1.541,3.1,2.745c1.025,1.188,1.865,2.795,2.205,4.579c0.359,1.78,0.444,3.474,0.609,5.007
							c0.134,1.501,0.257,2.875,0.365,4.082c0.096,1.163,0.165,2.105,0.201,2.757c0.036,0.652,0.039,1.014,0.003,1.018
							c-0.036,0.004-0.107-0.352-0.205-0.997c-0.098-0.646-0.223-1.582-0.366-2.74c-0.141-1.203-0.301-2.574-0.476-4.071
							c-0.19-1.529-0.294-3.234-0.641-4.948c-0.332-1.722-1.1-3.216-2.065-4.381c-0.957-1.172-2.03-2.051-2.948-2.754
							C407.768,371.102,406.533,370.341,406.581,370.266z"/>
					</g>
				</g>
			</g>
			<g>
				<g>
					<g>
						<path style="fill:#FF9A6C;" d="M401.67,371.882c0.13-0.07,0.967,1.245,2.048,2.825c1.077,1.583,1.996,2.842,1.883,2.937
							c-0.105,0.091-1.219-1.035-2.313-2.644C402.189,373.395,401.546,371.947,401.67,371.882z"/>
					</g>
				</g>
			</g>
			<g>
				<g>
					<g>
						<path style="fill:#FF9A6C;" d="M359.741,315.004c-0.035-0.009,0.022-0.318,0.156-0.874c0.062-0.279,0.152-0.617,0.294-0.998
							c0.137-0.382,0.272-0.827,0.493-1.289c0.391-0.947,0.983-2.02,1.734-3.148c0.777-1.111,1.734-2.264,2.874-3.339
							c1.151-1.065,2.371-1.935,3.533-2.633c1.175-0.678,2.289-1.187,3.258-1.519c0.965-0.337,1.767-0.551,2.332-0.639
							c0.562-0.1,0.875-0.137,0.881-0.102c0.021,0.096-1.217,0.335-3.082,1.085c-0.934,0.369-2.007,0.902-3.141,1.586
							c-1.121,0.705-2.302,1.565-3.425,2.603c-1.112,1.049-2.055,2.163-2.836,3.233c-0.755,1.087-1.368,2.117-1.793,3.027
							C360.149,313.809,359.836,315.031,359.741,315.004z"/>
					</g>
				</g>
			</g>
			<g>
				<g>
					<path style="fill:#263238;" d="M367.002,269.823c-3.577,3.294-4.02,9.328-7.659,12.55c-2.67,2.364-6.521,2.727-9.776,4.181
						c-3.915,1.75-6.737,4.46-8.075,8.608l3.968,3.965c1.337-4.148,3.214-6.035,7.128-7.784c3.255-1.455,7.106-1.818,9.776-4.181
						c3.64-3.222,3.959-9.177,7.535-12.471l0.817-0.515L367.002,269.823z"/>
				</g>
			</g>
		</g>
		<g>
			<g>
				<g>
					<g>
						<path style="fill:#FF725E;" d="M194.536,210.325c12.709-4.069,21.532-4.978,35.789-7.895
							c14.264,10.072,25.583,11.723,42.015-1.127l29.635,2.296l10.63,62.589l1.078,94.499l8.077,26.491H190.055
							C190.055,387.178,191.518,217.421,194.536,210.325z"/>
					</g>
				</g>
				<g>
					<g>
						<path style="fill:#F5F5F5;" d="M264.144,254.158l-20.037,42.268c-0.141,0.297,0.076,0.64,0.405,0.64h18.408
							c0.3,0,0.516,0.29,0.429,0.577l-7.834,25.94c-0.151,0.5,0.531,0.81,0.808,0.367l24.171-38.669
							c0.186-0.298-0.028-0.685-0.38-0.685h-22.101c-0.673,0,4.563-20.739,6.971-30.138
							C265.118,253.933,264.376,253.668,264.144,254.158z"/>
					</g>
				</g>
				<g>
					<g>
						<path style="fill:#F5F5F5;" d="M263.321,322.811v-0.043c0-0.596,0.483-1.08,1.08-1.08h9.128c0.596,0,1.08,0.483,1.08,1.08
							v0.043c0,0.596-0.483,1.08-1.08,1.08h-9.128C263.805,323.89,263.321,323.407,263.321,322.811z"/>
					</g>
				</g>
			</g>
			<g>
				<g>
					<path style="fill:#FF725E;" d="M291.073,204.719c0,0,14.124-5.03,27.199,5.109c13.075,10.139,51.001,56.165,51.001,56.165
						l-42.268,27.309c0,0-28.982-37.782-29.714-39.586C296.56,251.913,280.369,222.52,291.073,204.719z"/>
				</g>
			</g>
			<g>
				<g>
					<g>
						<path style="fill:#263238;" d="M312.559,241.584c0.036-0.001,0.081,0.598,0.132,1.684c0.053,1.085,0.098,2.656,0.132,4.597
							c0.071,3.882,0.062,9.246-0.003,15.167c-0.06,5.88-0.115,11.198-0.156,15.162c-0.014,1.873-0.025,3.421-0.034,4.595
							c-0.012,1.085-0.035,1.686-0.071,1.687c-0.036,0.001-0.081-0.598-0.132-1.683c-0.053-1.085-0.098-2.655-0.132-4.596
							c-0.071-3.882-0.062-9.247,0.003-15.17c0.06-5.878,0.115-11.195,0.156-15.16c0.014-1.873,0.025-3.421,0.034-4.595
							C312.499,242.186,312.522,241.585,312.559,241.584z"/>
					</g>
				</g>
			</g>
		</g>
		<g>
			<g>
				<g>
					<g>
						<g>
							<path style="fill:#FFBF9D;" d="M173.061,296.803c0,0,2.421,29.676,8.485,37.922c6.064,8.245,16,25.268,51.112,37.543
								l14.89-14.097l-33.858-39.724l-6.064-40.196L173.061,296.803z"/>
						</g>
					</g>
				</g>
				<g>
					<g>
						<path style="fill:#263238;" d="M209.802,293.568c-4.99,0.877-8.741,5.743-13.746,6.526c-3.673,0.574-7.272-1.174-10.955-1.681
							c-4.428-0.609-8.428,0.177-11.918,2.971l0.871,5.669c3.489-2.794,6.619-3.587,11.047-2.977
							c3.682,0.507,7.282,2.255,10.955,1.681c5.006-0.783,8.603-5.649,13.593-6.526h1.008L209.802,293.568z"/>
					</g>
				</g>
				<g>
					<g>
						<g>
							<path style="fill:#FFBF9D;" d="M231.805,368.635c0,0,1.247,9.646,4.832,12.262c3.585,2.616,6.234,2.289,6.234,2.289
								l2.182,1.798c0,0-1.091,14.388,2.494,16.023c3.585,1.635,4.52-1.635,4.988-2.779c0.468-1.145,0.935-3.76,0.935-3.76
								s-0.468,14.714,1.403,16.349c1.87,1.635,3.896,0,3.896,0s2.961,1.78,5.299,0.727c2.338-1.054,3.117-7.593,3.117-7.593
								s-0.156,5.559,4.52,5.068c0,0,1.403-0.654,1.403-3.434c0-2.779,1.87-10.791,2.182-13.897
								c0.312-3.106-0.779-20.927-0.935-21.418c-0.156-0.49-0.312-3.924-7.793-5.068c-7.481-1.145-19.015-7.03-19.015-7.03
								L231.805,368.635z"/>
						</g>
					</g>
					<g>
						<g>
							<g>
								<path style="fill:#FF9A6C;" d="M253.278,397.249c-0.144-0.002-0.198-3.665-0.121-8.181c0.077-4.517,0.256-8.175,0.399-8.172
									c0.144,0.003,0.198,3.665,0.121,8.181C253.601,393.592,253.422,397.251,253.278,397.249z"/>
							</g>
						</g>
					</g>
					<g>
						<g>
							<g>
								<path style="fill:#FF9A6C;" d="M260.892,379.432c0.036-0.003,0.105,0.436,0.201,1.234c0.1,0.798,0.2,1.957,0.283,3.391
									c0.17,2.868,0.206,6.85-0.144,11.226c-0.356,4.377-1.029,8.302-1.658,11.106c-0.313,1.403-0.598,2.53-0.825,3.301
									c-0.223,0.772-0.362,1.194-0.397,1.185c-0.035-0.009,0.038-0.448,0.2-1.233c0.166-0.784,0.395-1.921,0.661-3.327
									c0.534-2.812,1.146-6.722,1.5-11.074c0.348-4.351,0.371-8.308,0.296-11.17c-0.036-1.431-0.08-2.59-0.117-3.39
									C260.858,379.88,260.857,379.435,260.892,379.432z"/>
							</g>
						</g>
					</g>
					<g>
						<g>
							<g>
								<path style="fill:#FF9A6C;" d="M267.956,377.854c0.036-0.005,0.116,0.361,0.232,1.029c0.121,0.667,0.249,1.639,0.367,2.846
									c0.242,2.412,0.348,5.771,0.131,9.463c-0.21,3.694-0.624,7.012-0.935,9.409c-0.159,1.198-0.299,2.167-0.408,2.834
									c-0.108,0.668-0.185,1.035-0.221,1.031c-0.036-0.004-0.027-0.379,0.02-1.054c0.067-0.789,0.148-1.739,0.243-2.852
									c0.217-2.406,0.572-5.724,0.781-9.397c0.216-3.672,0.169-7.001,0.022-9.406
									C268.047,379.351,267.873,377.865,267.956,377.854z"/>
							</g>
						</g>
					</g>
					<g>
						<g>
							<g>
								<path style="fill:#FF9A6C;" d="M252.991,375.41c-0.009,0.159-1.853-0.158-3.814,0.811c-1.978,0.923-2.937,2.523-3.066,2.425
									c-0.054-0.03,0.104-0.471,0.559-1.072c0.452-0.596,1.236-1.325,2.283-1.824c1.046-0.5,2.109-0.65,2.859-0.609
									C252.566,375.178,253.004,375.351,252.991,375.41z"/>
							</g>
						</g>
					</g>
					<g>
						<g>
							<g>
								<path style="fill:#FF9A6C;" d="M261.249,370.203c-0.008,0.157-1.756-0.112-3.583,0.85c-1.844,0.918-2.703,2.458-2.835,2.367
									c-0.055-0.028,0.076-0.453,0.487-1.037c0.408-0.58,1.131-1.295,2.112-1.793c0.98-0.499,1.987-0.662,2.698-0.633
									C260.845,369.981,261.262,370.143,261.249,370.203z"/>
							</g>
						</g>
					</g>
					<g>
						<g>
							<g>
								<path style="fill:#FF9A6C;" d="M266.877,368.132c-0.034,0.15-1.139-0.068-2.397,0.351c-1.266,0.392-2.055,1.197-2.168,1.092
									c-0.12-0.064,0.578-1.135,2.009-1.588C265.751,367.519,266.943,368.011,266.877,368.132z"/>
							</g>
						</g>
					</g>
				</g>
				<g>
					<g>
						<g>
							<path style="fill:#FF9A6C;" d="M213.192,317.795c-0.009,0.09-1.243-0.032-3.229,0.039c-0.993,0.02-2.17,0.15-3.466,0.336
								c-1.292,0.219-2.699,0.537-4.141,0.991c-2.888,0.913-5.325,2.211-7.013,3.256c-1.687,1.053-2.662,1.817-2.718,1.747
								c-0.023-0.028,0.2-0.244,0.625-0.613c0.419-0.375,1.066-0.869,1.892-1.443c1.656-1.136,4.113-2.513,7.057-3.443
								c1.469-0.462,2.908-0.772,4.227-0.969c1.324-0.163,2.523-0.256,3.532-0.229c1.007,0.009,1.821,0.07,2.377,0.155
								C212.891,317.699,213.196,317.759,213.192,317.795z"/>
						</g>
					</g>
				</g>
				<g>
					<g>
						<path style="fill:#263238;" d="M211.215,302.045c-4.99,0.877-8.741,5.743-13.746,6.526c-3.673,0.574-7.272-1.174-10.955-1.681
							c-4.428-0.609-8.428,0.177-11.918,2.971l0.87,5.669c3.49-2.794,6.619-3.587,11.047-2.977
							c3.682,0.507,7.282,2.255,10.955,1.681c5.006-0.783,8.603-5.649,13.593-6.526h1.008L211.215,302.045z"/>
					</g>
				</g>
				<g>
					<g>
						<path style="fill:#263238;" d="M241.436,360.895c-0.492-0.579-1.404-1.544-2.415-2.691c-1.562-1.78-3.009-3.092-3.14-2.956
							c0,0,0.001,0.001,0,0.002c0,0,0-0.001,0-0.001c-0.169-0.111-0.958,1.088-2.329,2.06c-0.679,0.49-1.37,0.793-1.892,0.926
							c-0.331,0.092-0.58,0.114-0.733,0.141c-0.104-0.066-0.185-0.104-0.209-0.079c-0.114,0.121,1.092,1.596,2.663,3.386
							c0.707,0.802,1.405,1.469,1.979,1.962c-0.178-0.01-0.358-0.003-0.54,0.04c-0.993,0.24-1.604,1.241-1.363,2.234
							c0.24,0.993,1.24,1.604,2.234,1.364c0.993-0.24,1.604-1.241,1.364-2.234c-0.115-0.474-0.405-0.856-0.782-1.105
							c-0.492-0.579-1.404-1.544-2.415-2.691c-0.487-0.555-0.957-1.055-1.385-1.489c0.487-0.011,1.568-0.271,2.599-1.081
							c0.991-0.764,1.501-1.69,1.659-2.181c0.473,0.585,1.101,1.322,1.812,2.133c0.707,0.801,1.405,1.469,1.979,1.962
							c-0.177-0.01-0.358-0.004-0.539,0.04c-0.993,0.24-1.604,1.241-1.363,2.234c0.24,0.993,1.241,1.604,2.234,1.363
							c0.993-0.241,1.604-1.241,1.363-2.234C242.103,361.527,241.813,361.144,241.436,360.895z M234.678,358.176
							c-1.031,0.817-2.077,1.201-2.376,1.414c-0.38-0.379-0.715-0.691-0.979-0.915c0.119,0.014,0.253,0.02,0.405,0.01
							c0.618-0.028,1.448-0.311,2.196-0.851c1.321-0.947,1.926-2.151,1.973-2.491c0.063,0.155,0.298,0.486,0.661,0.943
							C236.247,356.603,235.637,357.442,234.678,358.176z"/>
					</g>
				</g>
			</g>
			<g>
				<g>
					<g>
						<path style="fill:#FF725E;" d="M201.364,208.241c-1.213,0-24.054,3.387-28.712,20.973c-3.66,13.82-5.271,75.891-5.271,75.891
							l46.478-8.655l-7.666-60.19L201.364,208.241z"/>
					</g>
				</g>
				<g>
					<g>
						<g>
							<path style="fill:#263238;" d="M167.381,305.105c-0.003-0.018,0.287-0.089,0.842-0.209c0.601-0.124,1.412-0.29,2.433-0.5
								c2.166-0.422,5.217-1.015,8.966-1.745c7.622-1.431,18.072-3.394,29.616-5.562c1.802-0.333,3.578-0.661,5.262-0.972
								l-0.208,0.294c-1.622-10.404-2.657-19.675-3.239-26.338c-0.294-3.332-0.488-6.012-0.602-7.858
								c-0.048-0.888-0.086-1.594-0.115-2.123c-0.02-0.484-0.023-0.738-0.007-0.74c0.017-0.001,0.052,0.251,0.103,0.733
								c0.051,0.527,0.12,1.231,0.206,2.116c0.183,1.891,0.44,4.55,0.759,7.84c0.673,6.65,1.768,15.901,3.405,26.291l0.039,0.248
								l-0.247,0.046c-1.683,0.312-3.459,0.642-5.261,0.976c-11.555,2.109-22.015,4.019-29.644,5.412
								c-3.762,0.661-6.822,1.199-8.996,1.582c-1.028,0.17-1.845,0.304-2.451,0.404
								C167.681,305.086,167.384,305.123,167.381,305.105z"/>
						</g>
					</g>
				</g>
			</g>
		</g>
	</g>
</g>
</svg>
